<?xml version="1.0" encoding="UTF-8" standalone="no"?>
<!-- Generator: Adobe Illustrator 19.0.0, SVG Export Plug-In . SVG Version: 6.00 Build 0)  -->

<svg
   version="1.1"
   id="Layer_1"
   x="0px"
   y="0px"
   viewBox="0 0 512 512"
   style="enable-background:new 0 0 512 512;"
   xml:space="preserve"
   width="512px"
   height="512px"
   sodipodi:docname="answer.svg"
   inkscape:version="1.1.2 (b8e25be8, 2022-02-05)"
   xmlns:inkscape="http://www.inkscape.org/namespaces/inkscape"
   xmlns:sodipodi="http://sodipodi.sourceforge.net/DTD/sodipodi-0.dtd"
   xmlns="http://www.w3.org/2000/svg"
   xmlns:svg="http://www.w3.org/2000/svg"><defs
   id="defs899" /><sodipodi:namedview
   id="namedview897"
   pagecolor="#ffffff"
   bordercolor="#666666"
   borderopacity="1.0"
   inkscape:pageshadow="2"
   inkscape:pageopacity="0.0"
   inkscape:pagecheckerboard="0"
   showgrid="false"
   inkscape:zoom="1.7050781"
   inkscape:cx="112.89805"
   inkscape:cy="263.0378"
   inkscape:window-width="1312"
   inkscape:window-height="1081"
   inkscape:window-x="0"
   inkscape:window-y="68"
   inkscape:window-maximized="0"
   inkscape:current-layer="Layer_1" />
<g
   id="g828"
   style="fill:#9b33f5;fill-opacity:1">
	<g
   id="g826"
   style="fill:#9b33f5;fill-opacity:1">
		<path
   d="M161.346,325.704v127.743c0,6.667,5.405,12.072,12.072,12.072c6.667,0,12.072-5.404,12.072-12.072V325.704H161.346z"
   fill="#f56a6a"
   id="path824"
   style="fill:#9b33f5;fill-opacity:1" />
	</g>
</g>
<g
   id="g834"
   style="fill:#9b33f5;fill-opacity:1">
	<g
   id="g832"
   style="fill:#9b33f5;fill-opacity:1">
		<path
   d="M326.16,325.704v127.743h-0.001c0,6.667,5.404,12.072,12.072,12.072c6.668,0,12.072-5.404,12.072-12.072V325.704H326.16z"
   fill="#f56a6a"
   id="path830"
   style="fill:#9b33f5;fill-opacity:1" />
	</g>
</g>
<g
   id="g840"
   style="fill:#9b33f5;fill-opacity:1">
	<g
   id="g838"
   style="fill:#9b33f5;fill-opacity:1">
		<path
   d="M205.694,325.704v145.62h-0.001c0,12.708,10.301,23.01,23.01,23.01s23.01-10.301,23.01-23.01v-145.62H205.694z"
   fill="#f56a6a"
   id="path836"
   style="fill:#9b33f5;fill-opacity:1" />
	</g>
</g>
<g
   id="g846"
   style="fill:#9b33f5;fill-opacity:1">
	<g
   id="g844"
   style="fill:#9b33f5;fill-opacity:1">
		<path
   d="M261.647,325.704v145.62h-0.001c0,12.708,10.301,23.01,23.01,23.01c12.708,0,23.01-10.301,23.01-23.01v-145.62H261.647z"
   fill="#f56a6a"
   id="path842"
   style="fill:#9b33f5;fill-opacity:1" />
	</g>
</g>
<g
   id="g852"
   style="fill:#9b33f5;fill-opacity:1">
	<g
   id="g850"
   style="fill:#9b33f5;fill-opacity:1">
		<circle
   cx="256.67"
   cy="98.495"
   r="39.739"
   fill="#f56a6a"
   id="circle848"
   style="fill:#9b33f5;fill-opacity:1" />
	</g>
</g>
<g
   id="g858"
   style="fill:#9b33f5;fill-opacity:1">
	<g
   id="g856"
   style="fill:#9b33f5;fill-opacity:1">
		<path
   d="M380.116,2.176c-9.39-4.896-20.971-1.251-25.867,8.138L280.96,150.897c-9.063,0-67.978,0-74.824,0    c-19.633,0-37.743,11.469-46.134,29.221c-3.623,7.664-25.287,53.492-28.34,59.952c-5.994,12.676,3.257,27.369,17.335,27.367    c0.016,0,0.032,0,0.048,0l73.748-0.185c10.59-0.026,19.153-8.632,19.126-19.222c-0.027-10.574-8.606-19.126-19.173-19.126    c-0.017,0-0.033,0-0.049,0l-43.392,0.108c8.658-18.314,6.823-14.433,15.366-32.505c0.051-0.107,0.103-0.214,0.157-0.32    c1.203-2.368,3.872-3.6,6.454-2.981c2.582,0.619,4.401,2.929,4.401,5.585v12.588l16.97-0.042c0.031,0,0.062,0,0.094,0    c20.25,0,36.688,16.388,36.739,36.649c0.018,7.136-2.006,13.797-5.513,19.444h53.273v-85.008    c2.008-2.383-4.062,8.799,81.008-154.379C393.15,18.652,389.506,7.07,380.116,2.176z"
   fill="#f56a6a"
   id="path854"
   style="fill:#9b33f5;fill-opacity:1" />
	</g>
</g>
<g
   id="g864"
   style="fill:#9b33f5;fill-opacity:1">
	<g
   id="g862"
   style="fill:#9b33f5;fill-opacity:1">
		<path
   d="M445.925,284.938c-7.281,0-377.56,0-379.851,0c-6.422,0-11.627,5.206-11.627,11.627s5.206,11.629,11.627,11.629H78.59    v185.96c0,9.856,7.99,17.846,17.846,17.846c9.856,0,17.846-7.99,17.846-17.846v-185.96c12.719,0,271.305,0,284.484,0v185.96    c0,9.856,7.99,17.846,17.846,17.846s17.846-7.99,17.846-17.846v-185.96h11.467c6.422,0,11.627-5.206,11.627-11.629    C457.553,290.145,452.346,284.938,445.925,284.938z"
   fill="#f56a6a"
   id="path860"
   style="fill:#9b33f5;fill-opacity:1" />
	</g>
</g>
<g
   id="g866"
   style="fill:#9b33f5;fill-opacity:1">
</g>
<g
   id="g868"
   style="fill:#9b33f5;fill-opacity:1">
</g>
<g
   id="g870"
   style="fill:#9b33f5;fill-opacity:1">
</g>
<g
   id="g872"
   style="fill:#9b33f5;fill-opacity:1">
</g>
<g
   id="g874"
   style="fill:#9b33f5;fill-opacity:1">
</g>
<g
   id="g876"
   style="fill:#9b33f5;fill-opacity:1">
</g>
<g
   id="g878"
   style="fill:#9b33f5;fill-opacity:1">
</g>
<g
   id="g880"
   style="fill:#9b33f5;fill-opacity:1">
</g>
<g
   id="g882"
   style="fill:#9b33f5;fill-opacity:1">
</g>
<g
   id="g884"
   style="fill:#9b33f5;fill-opacity:1">
</g>
<g
   id="g886"
   style="fill:#9b33f5;fill-opacity:1">
</g>
<g
   id="g888"
   style="fill:#9b33f5;fill-opacity:1">
</g>
<g
   id="g890"
   style="fill:#9b33f5;fill-opacity:1">
</g>
<g
   id="g892"
   style="fill:#9b33f5;fill-opacity:1">
</g>
<g
   id="g894"
   style="fill:#9b33f5;fill-opacity:1">
</g>
</svg>
