<?xml version="1.0" encoding="UTF-8" standalone="no"?>
<!-- Generator: Adobe Illustrator 16.0.0, SVG Export Plug-In . SVG Version: 6.00 Build 0)  -->

<svg
   version="1.1"
   id="Capa_1"
   x="0px"
   y="0px"
   width="512px"
   height="512px"
   viewBox="0 0 441.782 441.782"
   style="enable-background:new 0 0 441.782 441.782;"
   xml:space="preserve"
   sodipodi:docname="box-get-out.svg"
   inkscape:version="1.1.2 (b8e25be8, 2022-02-05)"
   xmlns:inkscape="http://www.inkscape.org/namespaces/inkscape"
   xmlns:sodipodi="http://sodipodi.sourceforge.net/DTD/sodipodi-0.dtd"
   xmlns="http://www.w3.org/2000/svg"
   xmlns:svg="http://www.w3.org/2000/svg"><defs
   id="defs861" /><sodipodi:namedview
   id="namedview859"
   pagecolor="#ffffff"
   bordercolor="#666666"
   borderopacity="1.0"
   inkscape:pageshadow="2"
   inkscape:pageopacity="0.0"
   inkscape:pagecheckerboard="0"
   showgrid="false"
   inkscape:zoom="1.7050781"
   inkscape:cx="112.89805"
   inkscape:cy="263.0378"
   inkscape:window-width="1312"
   inkscape:window-height="1081"
   inkscape:window-x="0"
   inkscape:window-y="25"
   inkscape:window-maximized="0"
   inkscape:current-layer="Capa_1" />
<g
   id="g826"
   style="fill:#9b33f5;fill-opacity:1">
	<path
   d="M395.154,161.689l-0.607,0.279v-1.77l-0.407,0.155l0.263-0.631l-105.62-43.023c-1.275-0.252-2.526-0.6-3.741-1.087   l-22.673-8.94v12.544l116.146,47.308l-148.703,58.649v-12.37h-28.115c-12.289,0-22.284-9.992-22.284-22.28v-78.895L50.943,160.423   l-0.562-0.225v0.106L4.254,228.16l46.126-4.071v151.979l165.933,65.458v0.256h12.287v-0.256l165.938-65.458V271.422l42.988-18.479   L395.154,161.689z M216.319,428.304L62.676,367.712V178.264l153.643,60.604V428.304z M382.238,367.707l-153.632,60.597V238.868   l33.762,89.366l119.87-51.527V367.707z M142.365,100.315c-1.041-1.385-1.041-3.278,0.025-4.657l72.384-94.156   C215.506,0.558,216.621,0,217.826,0c1.185,0,2.31,0.558,3.043,1.502l72.386,94.156c0.536,0.69,0.799,1.514,0.799,2.337   c0,0.818-0.254,1.625-0.779,2.32c-1.028,1.384-2.867,1.888-4.465,1.25l-47.935-18.923v110.956c0,2.123-1.722,3.844-3.847,3.844   h-38.41c-2.124,0-3.845-1.715-3.845-3.844V82.643l-47.924,18.923C145.247,102.208,143.408,101.7,142.365,100.315z"
   fill="#f56a6a"
   id="path824"
   style="fill:#9b33f5;fill-opacity:1" />
</g>
<g
   id="g828"
   style="fill:#9b33f5;fill-opacity:1">
</g>
<g
   id="g830"
   style="fill:#9b33f5;fill-opacity:1">
</g>
<g
   id="g832"
   style="fill:#9b33f5;fill-opacity:1">
</g>
<g
   id="g834"
   style="fill:#9b33f5;fill-opacity:1">
</g>
<g
   id="g836"
   style="fill:#9b33f5;fill-opacity:1">
</g>
<g
   id="g838"
   style="fill:#9b33f5;fill-opacity:1">
</g>
<g
   id="g840"
   style="fill:#9b33f5;fill-opacity:1">
</g>
<g
   id="g842"
   style="fill:#9b33f5;fill-opacity:1">
</g>
<g
   id="g844"
   style="fill:#9b33f5;fill-opacity:1">
</g>
<g
   id="g846"
   style="fill:#9b33f5;fill-opacity:1">
</g>
<g
   id="g848"
   style="fill:#9b33f5;fill-opacity:1">
</g>
<g
   id="g850"
   style="fill:#9b33f5;fill-opacity:1">
</g>
<g
   id="g852"
   style="fill:#9b33f5;fill-opacity:1">
</g>
<g
   id="g854"
   style="fill:#9b33f5;fill-opacity:1">
</g>
<g
   id="g856"
   style="fill:#9b33f5;fill-opacity:1">
</g>
</svg>
