<?xml version="1.0" encoding="UTF-8" standalone="no"?>
<!-- Generator: Adobe Illustrator 19.0.0, SVG Export Plug-In . SVG Version: 6.00 Build 0)  -->

<svg
   version="1.1"
   id="Capa_1"
   x="0px"
   y="0px"
   viewBox="0 0 60 60"
   style="enable-background:new 0 0 60 60;"
   xml:space="preserve"
   width="512px"
   height="512px"
   sodipodi:docname="file_red.svg"
   inkscape:version="1.1.2 (b8e25be8, 2022-02-05)"
   xmlns:inkscape="http://www.inkscape.org/namespaces/inkscape"
   xmlns:sodipodi="http://sodipodi.sourceforge.net/DTD/sodipodi-0.dtd"
   xmlns="http://www.w3.org/2000/svg"
   xmlns:svg="http://www.w3.org/2000/svg"><defs
   id="defs871" /><sodipodi:namedview
   id="namedview869"
   pagecolor="#ffffff"
   bordercolor="#666666"
   borderopacity="1.0"
   inkscape:pageshadow="2"
   inkscape:pageopacity="0.0"
   inkscape:pagecheckerboard="0"
   showgrid="false"
   inkscape:zoom="1.7050781"
   inkscape:cx="112.89805"
   inkscape:cy="263.0378"
   inkscape:window-width="1312"
   inkscape:window-height="1081"
   inkscape:window-x="0"
   inkscape:window-y="25"
   inkscape:window-maximized="0"
   inkscape:current-layer="Capa_1" />
<g
   id="g836"
   style="fill:#9b33f5;fill-opacity:1">
	<path
   d="M45,25H20c-0.552,0-1,0.447-1,1s0.448,1,1,1h25c0.552,0,1-0.447,1-1S45.552,25,45,25z"
   fill="#D80027"
   id="path824"
   style="fill:#9b33f5;fill-opacity:1" />
	<path
   d="M20,19h10c0.552,0,1-0.447,1-1s-0.448-1-1-1H20c-0.552,0-1,0.447-1,1S19.448,19,20,19z"
   fill="#D80027"
   id="path826"
   style="fill:#9b33f5;fill-opacity:1" />
	<path
   d="M45,33H20c-0.552,0-1,0.447-1,1s0.448,1,1,1h25c0.552,0,1-0.447,1-1S45.552,33,45,33z"
   fill="#D80027"
   id="path828"
   style="fill:#9b33f5;fill-opacity:1" />
	<path
   d="M45,41H20c-0.552,0-1,0.447-1,1s0.448,1,1,1h25c0.552,0,1-0.447,1-1S45.552,41,45,41z"
   fill="#D80027"
   id="path830"
   style="fill:#9b33f5;fill-opacity:1" />
	<path
   d="M45,49H20c-0.552,0-1,0.447-1,1s0.448,1,1,1h25c0.552,0,1-0.447,1-1S45.552,49,45,49z"
   fill="#D80027"
   id="path832"
   style="fill:#9b33f5;fill-opacity:1" />
	<path
   d="M49,14.586V0H6v55h5v5h43V19.586L49,14.586z M40,8.414l9,9L50.586,19H40V8.414z M8,53V2h39v10.586L39.414,5H11v48H8z    M13,58v-3V7h25v14h14v37H13z"
   fill="#D80027"
   id="path834"
   style="fill:#9b33f5;fill-opacity:1" />
</g>
<g
   id="g838"
   style="fill:#9b33f5;fill-opacity:1">
</g>
<g
   id="g840"
   style="fill:#9b33f5;fill-opacity:1">
</g>
<g
   id="g842"
   style="fill:#9b33f5;fill-opacity:1">
</g>
<g
   id="g844"
   style="fill:#9b33f5;fill-opacity:1">
</g>
<g
   id="g846"
   style="fill:#9b33f5;fill-opacity:1">
</g>
<g
   id="g848"
   style="fill:#9b33f5;fill-opacity:1">
</g>
<g
   id="g850"
   style="fill:#9b33f5;fill-opacity:1">
</g>
<g
   id="g852"
   style="fill:#9b33f5;fill-opacity:1">
</g>
<g
   id="g854"
   style="fill:#9b33f5;fill-opacity:1">
</g>
<g
   id="g856"
   style="fill:#9b33f5;fill-opacity:1">
</g>
<g
   id="g858"
   style="fill:#9b33f5;fill-opacity:1">
</g>
<g
   id="g860"
   style="fill:#9b33f5;fill-opacity:1">
</g>
<g
   id="g862"
   style="fill:#9b33f5;fill-opacity:1">
</g>
<g
   id="g864"
   style="fill:#9b33f5;fill-opacity:1">
</g>
<g
   id="g866"
   style="fill:#9b33f5;fill-opacity:1">
</g>
</svg>
