<?xml version="1.0" encoding="UTF-8" standalone="no"?>
<!-- Generator: Adobe Illustrator 19.0.0, SVG Export Plug-In . SVG Version: 6.00 Build 0)  -->

<svg
   version="1.1"
   id="Capa_1"
   x="0px"
   y="0px"
   viewBox="0 0 481.707 481.707"
   style="enable-background:new 0 0 481.707 481.707;"
   xml:space="preserve"
   width="512px"
   height="512px"
   sodipodi:docname="focus.svg"
   inkscape:version="1.1.2 (b8e25be8, 2022-02-05)"
   xmlns:inkscape="http://www.inkscape.org/namespaces/inkscape"
   xmlns:sodipodi="http://sodipodi.sourceforge.net/DTD/sodipodi-0.dtd"
   xmlns="http://www.w3.org/2000/svg"
   xmlns:svg="http://www.w3.org/2000/svg"><defs
   id="defs1040" /><sodipodi:namedview
   id="namedview1038"
   pagecolor="#ffffff"
   bordercolor="#666666"
   borderopacity="1.0"
   inkscape:pageshadow="2"
   inkscape:pageopacity="0.0"
   inkscape:pagecheckerboard="0"
   showgrid="false"
   inkscape:zoom="1.7050781"
   inkscape:cx="112.89805"
   inkscape:cy="263.0378"
   inkscape:window-width="1296"
   inkscape:window-height="1081"
   inkscape:window-x="0"
   inkscape:window-y="25"
   inkscape:window-maximized="0"
   inkscape:current-layer="Capa_1" />
<g
   id="g957"
   style="fill:#9b33f5;fill-opacity:1">
	<g
   id="g955"
   style="fill:#9b33f5;fill-opacity:1">
		<path
   d="M240.853,1.707c-98.691,0-176,71.453-176,162.664c0,43.328,17.199,100.695,44.891,149.703    c4.973,8.805,11.465,18.062,18.34,27.859c13.861,19.77,29.264,41.886,32.162,61.486c-9.331,3.255-15.531,12.117-15.393,21.998    c0.038,5.973,2.337,11.71,6.434,16.057c-9.013,9.653-8.494,24.785,1.159,33.798c4.45,4.155,10.318,6.456,16.407,6.434h144    c13.209,0.046,23.954-10.625,24-23.834c0.021-6.107-2.295-11.991-6.473-16.445c4.162-4.518,6.473-10.437,6.473-16.58    c0-9.708-6.193-18.333-15.392-21.436c2.901-19.599,18.302-41.712,32.162-61.479c6.875-9.797,13.367-19.055,18.34-27.859    c27.691-49.008,44.891-106.375,44.891-149.703C416.853,73.16,339.545,1.707,240.853,1.707z M312.853,465.707h-144    c-4.418,0-8-3.582-8-8s3.582-8,8-8h144c4.418,0,8,3.582,8,8S317.272,465.707,312.853,465.707z M311.674,433.707H170.033    c-4.897,0.17-9.004-3.662-9.174-8.559c-0.003-0.1-0.005-0.2-0.005-0.3c0-4.906,4.758-7.141,9.18-7.141h141.641    c4.422,0,9.18,2.234,9.18,7.711C320.59,430.233,316.491,433.934,311.674,433.707z M358.033,306.199    c-4.594,8.133-10.867,17.078-17.508,26.547c-15.016,21.414-31.832,45.391-35.105,68.961H176.287    c-3.274-23.57-20.09-47.547-35.106-68.961c-6.641-9.469-12.914-18.414-17.508-26.547c-26.012-46.039-42.82-101.711-42.82-141.828    c0-82.242,70.281-146.664,160-146.664s160,64.422,160,146.664C400.853,204.488,384.045,260.16,358.033,306.199z"
   fill="#f56a6a"
   id="path953"
   style="fill:#9b33f5;fill-opacity:1" />
	</g>
</g>
<g
   id="g963"
   style="fill:#9b33f5;fill-opacity:1">
	<g
   id="g961"
   style="fill:#9b33f5;fill-opacity:1">
		<path
   d="M240.853,65.707c-17.673,0-32,14.327-32,32s14.327,32,32,32c17.673,0,32-14.327,32-32    C272.835,80.041,258.519,65.725,240.853,65.707z M240.853,113.707c-8.837,0-16-7.163-16-16s7.163-16,16-16s16,7.163,16,16    C256.843,106.539,249.686,113.696,240.853,113.707z"
   fill="#f56a6a"
   id="path959"
   style="fill:#9b33f5;fill-opacity:1" />
	</g>
</g>
<g
   id="g969"
   style="fill:#9b33f5;fill-opacity:1">
	<g
   id="g967"
   style="fill:#9b33f5;fill-opacity:1">
		<path
   d="M272.842,313.308l-8-160c-0.212-4.258-3.725-7.601-7.988-7.602h-32c-4.263,0-7.777,3.344-7.988,7.602l-8,160    c-0.224,4.409,3.169,8.165,7.579,8.388c0.136,0.007,0.273,0.01,0.41,0.01h48c4.415,0.003,7.996-3.574,7.999-7.989    C272.852,313.581,272.849,313.445,272.842,313.308z M225.264,305.707l7.199-144h16.781l7.199,144H225.264z"
   fill="#f56a6a"
   id="path965"
   style="fill:#9b33f5;fill-opacity:1" />
	</g>
</g>
<g
   id="g975"
   style="fill:#9b33f5;fill-opacity:1">
	<g
   id="g973"
   style="fill:#9b33f5;fill-opacity:1">
		<rect
   x="440.853"
   y="161.707"
   width="32"
   height="16"
   fill="#f56a6a"
   id="rect971"
   style="fill:#9b33f5;fill-opacity:1" />
	</g>
</g>
<g
   id="g981"
   style="fill:#9b33f5;fill-opacity:1">
	<g
   id="g979"
   style="fill:#9b33f5;fill-opacity:1">
		<rect
   x="8.853"
   y="161.707"
   width="32"
   height="16"
   fill="#f56a6a"
   id="rect977"
   style="fill:#9b33f5;fill-opacity:1" />
	</g>
</g>
<g
   id="g987"
   style="fill:#9b33f5;fill-opacity:1">
	<g
   id="g985"
   style="fill:#9b33f5;fill-opacity:1">
		<rect
   x="405.543"
   y="316.992"
   transform="matrix(0.707 -0.7072 0.7072 0.707 -114.3318 389.9943)"
   width="16"
   height="32"
   fill="#f56a6a"
   id="rect983"
   style="fill:#9b33f5;fill-opacity:1" />
	</g>
</g>
<g
   id="g993"
   style="fill:#9b33f5;fill-opacity:1">
	<g
   id="g991"
   style="fill:#9b33f5;fill-opacity:1">
		<rect
   x="80.115"
   y="0.971"
   transform="matrix(0.7071 -0.7071 0.7071 0.7071 13.8082 67.2774)"
   width="16"
   height="32"
   fill="#f56a6a"
   id="rect989"
   style="fill:#9b33f5;fill-opacity:1" />
	</g>
</g>
<g
   id="g999"
   style="fill:#9b33f5;fill-opacity:1">
	<g
   id="g997"
   style="fill:#9b33f5;fill-opacity:1">
		<rect
   x="384.248"
   y="13.051"
   transform="matrix(0.7071 -0.7071 0.7071 0.7071 102.3451 289.1841)"
   width="32"
   height="16"
   fill="#f56a6a"
   id="rect995"
   style="fill:#9b33f5;fill-opacity:1" />
	</g>
</g>
<g
   id="g1005"
   style="fill:#9b33f5;fill-opacity:1">
	<g
   id="g1003"
   style="fill:#9b33f5;fill-opacity:1">
		<rect
   x="53.546"
   y="326.394"
   transform="matrix(0.7072 -0.707 0.707 0.7072 -216.0665 147.0938)"
   width="32"
   height="16"
   fill="#f56a6a"
   id="rect1001"
   style="fill:#9b33f5;fill-opacity:1" />
	</g>
</g>
<g
   id="g1007"
   style="fill:#9b33f5;fill-opacity:1">
</g>
<g
   id="g1009"
   style="fill:#9b33f5;fill-opacity:1">
</g>
<g
   id="g1011"
   style="fill:#9b33f5;fill-opacity:1">
</g>
<g
   id="g1013"
   style="fill:#9b33f5;fill-opacity:1">
</g>
<g
   id="g1015"
   style="fill:#9b33f5;fill-opacity:1">
</g>
<g
   id="g1017"
   style="fill:#9b33f5;fill-opacity:1">
</g>
<g
   id="g1019"
   style="fill:#9b33f5;fill-opacity:1">
</g>
<g
   id="g1021"
   style="fill:#9b33f5;fill-opacity:1">
</g>
<g
   id="g1023"
   style="fill:#9b33f5;fill-opacity:1">
</g>
<g
   id="g1025"
   style="fill:#9b33f5;fill-opacity:1">
</g>
<g
   id="g1027"
   style="fill:#9b33f5;fill-opacity:1">
</g>
<g
   id="g1029"
   style="fill:#9b33f5;fill-opacity:1">
</g>
<g
   id="g1031"
   style="fill:#9b33f5;fill-opacity:1">
</g>
<g
   id="g1033"
   style="fill:#9b33f5;fill-opacity:1">
</g>
<g
   id="g1035"
   style="fill:#9b33f5;fill-opacity:1">
</g>
</svg>
