<svg id="svg-comp" viewBox="0 0 200 200" width="1000" height="1000" xmlns="http://www.w3.org/2000/svg" xmlns:xlink="http://www.w3.org/1999/xlink" version="1.1">

    <defs id="standardDefs"></defs>

    <g class="cat-design cat-design-bg" transform="translate(-0.0 -0.0) scale(1.0 1)">
        <g class="cat-layer cat-bg"><g class="des-layer des-loaded"><rect id="rect4528" style="fill:none;" x="-100" y="-100" width="400" height="400"></rect></g></g>
    </g>
    <g class="cat-design cat-design-0" transform="scale(1 1) translate(0 0)">
        <g class="dsgn-0 cat-layer cat-hr-b clip-ha"><g class="des-layer des-loaded"><path id="path922" class="m" style="fill:#663300;" d="M 77.208347,100.60053 C 73.668951,95.303392 68.119418,77.605548 70.317791,54.785268 71.89777,38.38425 76.297217,18.820053 100.45283,19.267486 c 23.42781,-1.859149 28.44716,22.278023 29.11809,39.605711 0.76823,19.840773 -1.17315,38.478297 -7.46003,43.038793 -6.73076,5.26619 -41.066704,5.26807 -44.902543,-1.31146 z"></path><path id="path914" class="outline" style="fill:none;stroke:#000000;stroke-width:1px;" d="M 77.208347,100.60053 C 73.668951,95.303392 68.119418,77.605548 70.317791,54.785268 71.89777,38.38425 76.297217,18.820053 100.45283,19.267486 c 23.42781,-1.859149 28.44716,22.278023 29.11809,39.605711 0.76823,19.840773 -1.17315,38.478297 -7.46003,43.038793 -6.73076,5.26619 -41.066704,5.26807 -44.902543,-1.31146 z"></path></g></g>
        <g class="dsgn-0 cat-layer cat-ba-b clip-ha"></g>
        <g class="dsgn-0 cat-layer cat-fc clip-ha"><g class="des-layer des-loaded"><path id="path3307-8-2-7-9" class="m" style="fill:#ffca99;stroke:#000000;" d="M 123.85576,64.825105 C 124.60438,58.787518 126,60.000004 131,53.000004 c 2,1 1.97276,7.300041 2,9.147 -0.0804,5.723948 -1.21329,9.785076 -6.87825,13.846206 -6.79796,4.06113 -3.39898,-5.076411 -2.26599,-11.168105 z"></path><path id="path4774-3-9-5-8" style="fill:none;stroke:#000000;stroke-width:0.40000001;stroke-linecap:round;stroke-linejoin:round;" d="m 128.31582,65.925455 c 0,-4.812648 -2.06065,-2.887589 -3.09097,1.925058"></path><path id="path4772-5-9-8-7" style="fill:none;stroke:#000000;stroke-width:0.40000001;stroke-linecap:round;stroke-linejoin:round;" d="m 130.37646,64.962924 c -0.6474,-8.91071 -5.15161,-1.330533 -5.15161,2.887589 2.06064,1.92506 1.03032,4.812648 -1.03033,4.812648"></path><path id="path3307-8-2-1" class="m" style="fill:#ffca99;stroke:#000000;" d="M 76.144236,64.825103 C 75.455266,59.268587 74,60.000004 69,53.000004 c -2,1 -1.968533,7.013419 -2,9.146998 0.0803,5.723949 1.213285,9.785079 6.878251,13.846208 6.797958,4.06113 3.398979,-5.076411 2.265985,-11.168107 z"></path><path id="path4774-3-9-7" style="fill:none;stroke:#000000;stroke-width:0.40000001;stroke-linecap:round;stroke-linejoin:round;" d="m 71.68418,65.925455 c 0,-4.812648 2.060647,-2.887589 3.09097,1.925058"></path><path id="path4772-5-9-85" style="fill:none;stroke:#000000;stroke-width:0.40000001;stroke-linecap:round;stroke-linejoin:round;" d="m 69.623534,64.962924 c 0.647405,-8.910713 5.151616,-1.330533 5.151616,2.887589 -2.060646,1.92506 -1.030323,4.812648 1.030323,4.812648"></path><path id="path3734-6-8-0" class="ms" style="fill:#ffca99;" d="m 90.020558,85.000001 c -0.04626,6.183044 0,17.999999 0,23.999999 4.994861,0 14.984582,0 19.979442,0 0,-6 0,-17.736782 0,-23.999999"></path><path id="path3846-0" class="outline" style="fill:none;stroke:#000000;" d="m 90.020558,85.000001 c -0.04626,6.183044 0,17.999999 0,23.999999 4.994861,0 14.984582,0 19.979442,0 0,-6 0,-17.736782 0,-23.999999"></path><path id="path2470-3-5-7" class="ms" style="fill:#ffca99;" d="M 79.995,82 C 75,72.000001 75,57.000001 75,47 75,27 90.01,22 100,22 c 9.99,0 25,5 25,25 0,10.000001 -0.005,25.000001 -5,35 -4.995,5.000002 -5.01,5.000001 -15,10 H 95 C 85.01,87.000001 84.99,87.000002 79.995,82 Z"></path><path id="path3246-4-6-3" class="hs" style="opacity:0.5;fill:#ffd7b3;" d="M 105,90.000001 H 95 c -7.5,-5 -13.5,-11 -16,-21 0,-5 0.5,-4 0.5,-11.5 0,-2.5 1,-1 -1.5,-3.5 C 80.5,41.500001 81,39 84,33 c 2.5,-5 11,-7 16,-7 5,0 13.5,2 16,7 3,6 3.5,8.500001 6,21.000001 -2.5,2.5 -1.5,1 -1.5,3.5 0,7.5 0.5,6.5 0.5,11.5 -2.5,10 -8.5,16 -16,21 z"></path><path id="path4234" class="hs" style="fill:#ffd7b3;" d="m 105,89.000001 c -5,0 -5,0 -10,0 -7.5,-5 -12.5,-10 -15,-20 0,-5 2.5,-5 2.5,-12.5 0,-2.5 0,0 -2.5,-2.5 2.5,-12.5 2.5,-12.5 7.5,-20 2.5,-5 7.5,-5 12.5,-5 5,0 10,0 12.5,5 5,7.5 5,7.5 7.5,20 -2.5,2.5 -2.5,0 -2.5,2.5 0,7.5 2.5,7.5 2.5,12.5 -2.5,10 -7.5,15 -15,20 z"></path><path id="path3840-63" class="outline" style="fill:none;stroke:#000000;stroke-linecap:round;stroke-linejoin:round;" d="M 80,82 C 75.005,72.000001 75,57.000001 75,47 75,27 90.01,22 100,22 c 9.99,0 25,5 25,25 0,10.000001 -0.005,25.000001 -5,35 -4.995,5.000002 -5.01,5.000001 -15,10 H 95 C 85.01,87.000001 84.995,87.000002 80,82 Z"></path></g></g>
        <g class="dsgn-0 cat-layer cat-eb-b clip-ha"><g class="des-layer des-loaded"><path id="path3459" class="ss" style="opacity:0.75;fill:#ffbd80;" d="m 88,61.999996 c -5,0 -8,-3 -8,-6 2,-3 15,-3 16,-2 0,7 -4,8 -8,8 z"></path><path id="path3448" class="ss" style="opacity:0.75;fill:#ffbd80;" d="m 112,61.999996 c 5,0 8,-3 8,-6 -2,-3 -15,-3 -16,-2 0,7 4,8 8,8 z"></path></g></g>
        <g class="dsgn-0 cat-layer cat-mu clip-ha"><g class="des-layer des-loaded"><path id="path4622" class="m" style="opacity:0.25;fill:#ffffff;" d="m 88.868323,53.602817 c -4.687786,0.0036 -8.137701,2.001278 -8.269284,6.910521 -0.09221,3.440489 4.760697,5.140621 7.646626,5.140005 3.269452,-6.99e-4 6.533315,-0.739984 6.592958,-3.448522 0.07009,-3.182959 -0.514122,-8.606265 -5.9703,-8.602004 z"></path><path id="path4628" class="m" style="opacity:0.5;fill:#ffffff;" d="m 80.938514,61.085555 c 0.04257,2.413149 4.449479,4.311787 7.141107,4.336057 3.40314,0.03068 6.46786,-0.81081 6.520058,-3.008233 0.108879,-4.583638 -0.897308,-8.185532 -6.021788,-8.15194 -5.852172,0.03836 -7.704829,3.113109 -7.639377,6.824116 z"></path><path id="path4634" class="m" style="opacity:0.5;fill:#ffffff;" d="m 81.238434,61.062639 c 0.04134,2.202279 4.22494,4.065288 6.838755,4.087437 3.30476,0.02801 6.280882,-0.739957 6.33157,-2.74536 0.105731,-4.183104 -0.871367,-7.297411 -5.847706,-7.266754 -5.682991,0.035 -7.386179,2.537951 -7.322619,5.924677 z"></path><path id="path4636" class="m" style="opacity:0.5;fill:#ffffff;" d="m 81.608731,61.202887 c 0.03955,1.887307 4.042888,3.48387 6.544075,3.502851 3.162357,0.024 6.010238,-0.634129 6.058743,-2.352719 0.101175,-3.584835 -0.833821,-6.401854 -5.595729,-6.375581 -5.438113,0.03 -7.067911,2.323093 -7.007089,5.225449 z"></path><path id="path4608" class="m" style="fill:#ffffff;" d="m 94.037135,62.314975 c -0.0061,1.243333 -2.478758,1.933257 -5.881298,1.898359 -3.919742,-0.0402 -5.952145,-2.305462 -6.024632,-2.997036 -0.171472,-1.635973 0.355948,-4.745091 6.933217,-4.660981 3.248747,0.04155 4.98986,2.191681 4.972713,5.759658 z"></path><path id="path4640" class="m" style="opacity:0.25;fill:#ffffff;" d="m 111.13168,53.602817 c 4.68778,0.0036 8.1377,2.001278 8.26928,6.910521 0.0922,3.440489 -4.7607,5.140621 -7.64663,5.140005 -3.26945,-6.99e-4 -6.53331,-0.739984 -6.59295,-3.448522 -0.0701,-3.182959 0.51412,-8.606265 5.9703,-8.602004 z"></path><path id="path4642" class="m" style="opacity:0.5;fill:#ffffff;" d="m 119.06149,61.085555 c -0.0426,2.413149 -4.44948,4.311787 -7.14111,4.336057 -3.40314,0.03068 -6.46786,-0.81081 -6.52006,-3.008233 -0.10888,-4.583638 0.89731,-8.185532 6.02179,-8.15194 5.85217,0.03836 7.70483,3.113109 7.63938,6.824116 z"></path><path id="path4644" class="m" style="opacity:0.5;fill:#ffffff;" d="m 118.76157,61.062639 c -0.0413,2.202279 -4.22494,4.065288 -6.83876,4.087437 -3.30476,0.02801 -6.28088,-0.739957 -6.33157,-2.74536 -0.10573,-4.183104 0.87137,-7.297411 5.84771,-7.266754 5.68299,0.035 7.38618,2.537951 7.32262,5.924677 z"></path><path id="path4646" class="m" style="opacity:0.5;fill:#ffffff;" d="m 118.39127,61.202887 c -0.0396,1.887307 -4.04289,3.48387 -6.54408,3.502851 -3.16235,0.024 -6.01023,-0.634129 -6.05874,-2.352719 -0.10117,-3.584835 0.83382,-6.401854 5.59573,-6.375581 5.43811,0.03 7.06791,2.323093 7.00709,5.225449 z"></path><path id="path4648" class="m" style="fill:#ffffff;" d="m 105.96286,62.314975 c 0.006,1.243333 2.47876,1.933257 5.8813,1.898359 3.91974,-0.0402 5.95215,-2.305462 6.02463,-2.997036 0.17148,-1.635973 -0.35594,-4.745091 -6.93321,-4.660981 -3.24875,0.04155 -4.98986,2.191681 -4.97272,5.759658 z"></path></g></g>
        <g class="dsgn-0 cat-layer cat-bl"><g class="des-layer des-loaded"><path id="path5086-31" class="m" style="fill:#000000;" d="m 121,146 c 0,-8 -5.03098,-12 -21,-12 -16,0 -21,4 -21,12 0,12 9,23 9,36 l 24,0 c 0,-13 9,-24 9,-36 z"></path><path id="path3864-8" class="outline" style="fill:none;stroke:#222222;stroke-width:0.99999988px;" d="m 121,146 c 0,-8 -5.03098,-12 -21,-12 -16,0 -21,4 -21,12 0,12 9,23 9,36 l 24,0 c 0,-13 9,-24 9,-36 z"></path><path id="path4936-8" class="outline" style="fill:none;stroke:#222222;stroke-width:0.99999988px;stroke-linecap:round;" d="m 96,150 c 0,2 1.89139,3 4,3 2,0 4,-1 4,-3 m -4,3 -0.002,28.63096"></path></g></g>
        <g class="dsgn-0 cat-layer cat-sh"><g class="des-layer des-loaded"><ellipse id="path3060" style="opacity:0.75;fill:#000000;" cx="100" cy="187.5" rx="40" ry="7.5"></ellipse><path id="path4626" class="m" style="fill:#000000;" d="m 100,170 -0.01456,13.33394 c 0.0539,1.60158 -1.14344,1.23602 -2.72501,2.12955 -3.64458,2.38336 -3.314276,3.56168 -7.718453,4.53622 -1.847387,0.40879 -14.954486,1.4774 -14.850453,-2.44286 0.04407,-1.66071 2.30187,-3.53158 4.387706,-4.54246 2.888496,-1.39988 8.592087,-1.94005 8.531293,-3.4491 L 85,170 Z"></path><path id="path4344" class="s" style="fill:#070707;" d="m 99.99832,184.1292 c 0,0 -1.077183,0.44279 -1.884762,-0.11722 -0.482121,-0.33433 -1.11556,-1.37027 -1.55777,-1.22154 -0.717093,0.24119 -1.788066,1.04565 -1.847738,2.60967 -0.03861,1.01201 -0.43507,1.9499 -1.05805,2.94896 1.00378,-0.88537 2.29504,-2.06103 3.51951,-2.80767 0.78904,-0.48113 2.21351,-0.85014 2.82881,-1.4122 z"></path><path id="path3061" class="h" style="fill:#171717;" d="m 85,170 2.523918,9.98029 c -2.104241,0.88641 -4.680664,1.60688 -7.426803,2.66863 -1.711512,0.70584 -3.667638,2.03306 -4.064663,3.08048 3.329312,-2.14457 7.936911,-3.20399 11.124763,-3.81521 0.93332,-0.17895 4.622785,-0.38316 5.726641,-0.41667 0.391274,-0.0119 0.940532,-0.91295 0.410134,-0.89709 -3.123411,0.0934 -3.808311,-0.65031 -3.945808,-2.23699 -0.09506,-1.09693 0.490291,-1.80787 0.475123,-2.30041 -0.02869,-0.93176 -1.108876,-1.00122 -1.175141,-1.69323 -0.04378,-0.45727 0.785381,-0.84254 0.790403,-1.12499 0.0087,-0.4916 -1.578845,-0.42566 -1.54663,-1.1116 0.03558,-0.75765 3.621115,-1.72156 4.857625,-2.11455 z"></path><path id="path4620" class="outline" style="fill:none;stroke:#222222;stroke-width:1px;stroke-linecap:round;stroke-linejoin:round;" d="m 85,170 h 15 l -0.01456,13.33393 c 0.0539,1.60158 -1.14344,1.23602 -2.72501,2.12955 -3.64458,2.38336 -3.314276,3.56168 -7.718453,4.53622 -1.847387,0.40879 -14.954486,1.4774 -14.850453,-2.44286 0.04407,-1.66071 2.30187,-3.53158 4.387706,-4.54246 2.888496,-1.39988 8.592087,-1.94005 8.522382,-3.45694 z"></path><path id="path4577" class="m" style="fill:#000000;" d="m 100,170 0.0146,13.33394 c -0.0539,1.60158 1.14344,1.23602 2.72501,2.12955 3.64458,2.38336 3.31428,3.56168 7.71845,4.53622 1.84739,0.40879 14.95449,1.4774 14.85046,-2.44286 -0.0441,-1.66071 -2.30187,-3.53158 -4.38771,-4.54246 -2.8885,-1.39988 -8.59209,-1.94005 -8.53129,-3.4491 L 115,170 Z"></path><path id="path4579" class="s" style="fill:#070707;" d="m 100.00168,184.1292 c 0,0 1.07718,0.44279 1.88476,-0.11722 0.48212,-0.33433 1.11556,-1.37027 1.55777,-1.22154 0.7171,0.24119 1.78807,1.04565 1.84774,2.60967 0.0386,1.01201 0.43507,1.9499 1.05805,2.94896 -1.00378,-0.88537 -2.29504,-2.06103 -3.51951,-2.80767 -0.78904,-0.48113 -2.21351,-0.85014 -2.82881,-1.4122 z"></path><path id="path4581" class="h" style="fill:#171717;" d="m 115,170 -2.52392,9.98029 c 2.10424,0.88641 4.68067,1.60688 7.4268,2.66863 1.71152,0.70584 3.66764,2.03306 4.06467,3.08048 -3.32931,-2.14457 -7.93691,-3.20399 -11.12477,-3.81521 -0.93332,-0.17895 -4.62278,-0.38316 -5.72664,-0.41667 -0.39127,-0.0119 -0.94053,-0.91295 -0.41013,-0.89709 3.12341,0.0934 3.80831,-0.65031 3.94581,-2.23699 0.0951,-1.09693 -0.49029,-1.80787 -0.47513,-2.30041 0.0287,-0.93176 1.10888,-1.00122 1.17515,-1.69323 0.0438,-0.45727 -0.78539,-0.84254 -0.79041,-1.12499 -0.009,-0.4916 1.57885,-0.42566 1.54663,-1.1116 -0.0356,-0.75765 -3.62111,-1.72156 -4.85762,-2.11455 z"></path><path id="path4583" class="outline" style="fill:none;stroke:#222222;stroke-width:1px;stroke-linecap:round;stroke-linejoin:round;" d="m 115,170 h -15 l 0.0146,13.33393 c -0.0539,1.60158 1.14344,1.23602 2.72501,2.12955 3.64458,2.38336 3.31428,3.56168 7.71845,4.53622 1.84739,0.40879 14.95449,1.4774 14.85046,-2.44286 -0.0441,-1.66071 -2.30187,-3.53158 -4.38771,-4.54246 -2.8885,-1.39988 -8.59209,-1.94005 -8.52238,-3.45694 z"></path></g></g>
        <g class="dsgn-0 cat-layer cat-bt"><g class="des-layer des-loaded"><path id="path5741-0" class="ms" style="fill:#ffca99;stroke:#000000;stroke-width:0.99999994;stroke-linecap:round;stroke-linejoin:round;" d="m 76.174944,141.35023 c 2.283114,-0.007 4.125981,1.21908 4.951171,2.55706 1.614508,2.10995 1.390303,6.40572 1.192131,11.6561 -3.456988,-0.65367 -7.217969,-1.73088 -9.373561,-3.73603 -1.597788,-1.51413 -2.401686,-3.9082 -2.429778,-5.72469 0.185787,-2.42805 2.137827,-4.31943 5.660037,-4.75244 z"></path><path id="path5743-2" class="ms" style="fill:#ffca99;stroke:#000000;stroke-width:0.99999994px;stroke-linecap:round;stroke-linejoin:round;" d="m 81.927774,146.01724 c -0.211101,2.18451 0.419516,3.11877 -1.947946,5.93982 -2.705716,0.57314 -5.073179,-4.24273 -5.073179,-5.93982"></path><path id="path5745-3" style="fill:#e6e6e6;stroke:#000000;stroke-width:0.5;stroke-linecap:round;stroke-linejoin:round;" d="m 75.233078,146.05388 c -0.01813,-0.39386 0.01079,-0.94133 1.174491,-1.04464"></path><path id="path5747-2" style="fill:#e6e6e6;stroke:#000000;stroke-width:0.5;stroke-linecap:round;stroke-linejoin:round;" d="m 75.242125,146.12331 c -0.101601,-0.30892 -0.452187,-0.69932 -1.498451,-0.90155"></path><path id="path5749-0" style="fill:#ffffff;stroke:#000000;stroke-width:0.5;" d="m 79.594819,147.83391 c -1.481633,-0.0845 -2.402664,0.87207 -2.453606,2.4703 0.768841,0.77974 0.760667,1.53275 2.915717,1.68956 1.168086,-0.46347 1.046707,-1.32961 1.322863,-2.17055 -0.271434,-1.09163 -0.303342,-1.90483 -1.784974,-1.98931 z"></path><path id="path5073-1" class="ms" style="fill:#ffca99;stroke:#000000;stroke-width:0.99999994;stroke-linecap:round;stroke-linejoin:round;" d="m 123.93528,141.39795 c -2.24466,-0.007 -4.05649,1.21908 -4.86779,2.55706 -1.58731,2.10995 -1.36688,6.40572 -1.17205,11.6561 3.39877,-0.65367 7.09641,-1.73088 9.2157,-3.73603 1.57088,-1.51413 2.36124,-3.9082 2.38886,-5.72469 -0.18266,-2.42805 -2.10183,-4.31943 -5.56472,-4.75244 z"></path><path id="path4855-6" class="ms" style="fill:#ffca99;stroke:#000000;stroke-width:0.99999994px;stroke-linecap:round;stroke-linejoin:round;" d="m 118.27934,146.06496 c 0.20754,2.18451 -0.41246,3.11877 1.91514,5.93982 2.66015,0.57314 4.98774,-4.24273 4.98774,-5.93982"></path><path id="path5641-8" style="fill:#e6e6e6;stroke:#000000;stroke-width:0.5;stroke-linecap:round;stroke-linejoin:round;" d="m 124.86128,146.1016 c 0.0178,-0.39386 -0.0106,-0.94133 -1.15471,-1.04464"></path><path id="path5643-2" style="fill:#e6e6e6;stroke:#000000;stroke-width:0.5;stroke-linecap:round;stroke-linejoin:round;" d="m 124.85239,146.17103 c 0.0999,-0.30892 0.44457,-0.69932 1.47321,-0.90155"></path><path id="path5645-5" style="fill:#ffffff;stroke:#000000;stroke-width:0.5;" d="m 120.573,147.88163 c 1.45668,-0.0845 2.3622,0.87207 2.41228,2.4703 -0.75589,0.77974 -0.74786,1.53275 -2.86661,1.68956 -1.14842,-0.46347 -1.02908,-1.32961 -1.30059,-2.17055 0.26687,-1.09163 0.29824,-1.90483 1.75492,-1.98931 z"></path><path id="path4924-5" style="fill:none;stroke:#000000;stroke-width:0.99999988px;stroke-linecap:round;stroke-linejoin:round;" d="m 79.050724,107.41358 c 0,11.01389 0,29.37037 20.949276,29.37037 20.94928,0 20.94928,-18.35648 20.94928,-29.37037"></path><path id="path3323-0-7-7" class="m" style="fill:#ff99ff;" d="m 70,145 c 0,-5.29412 0,-40.29412 0,-45.588238 0,-5.294118 2,-7.411765 7,-7.411765 1.875,0 9.01563,0 13,0 0,3.705882 0,1.058824 0,2.117647 0,2.117647 2,5.294118 5,5.294118 4,0 6,0 10,0 3,0 5,-2.647059 5,-5.294118 0,-1.058823 0,-1.058823 0,-2.117647 3.98438,0 10.125,0 12,0 5,0 8,2.117647 8,7.411765 0,5.294118 0,40.294118 0,45.588238"></path><path id="path3342-6-7-2" class="h" style="fill:#ffb3ff;" d="m 77,91.999997 c -5,0 -7,2.117647 -7,7.411765 0,5.294118 0.08839,40.295908 0.08839,45.590028 1.139527,0 2.63032,0 2.875,0 -2e-6,-1.9853 0.03661,-44.5312 0.03661,-45.590028 0,-1.058824 1,-4.235294 4,-4.235294 2.41906,0 4,0 6,0 1,2.117647 1,5.294122 2,0 2,2.117647 4,4.235294 2,0 1,0 2,0 3,-1.058824 0,-1.058823 0,1.588235 0,-2.117647 -3.98437,0 -11.125,0 -13,0 z m 33,0 c 0,0.529412 0,1.058824 0,2.117647 1,1.058824 2,1.058824 3,1.058824 -2,5.294122 0,4.235294 3,0 0,5.294122 1,4.235294 2,0 2,0 2.58094,0 5,0 3,0 4,3.17647 4,4.235294 0,1.058828 0.21339,43.604728 0.21339,45.590028 h 2.875 c 0,-5.29412 -0.0884,-40.29591 -0.0884,-45.590028 0,-5.294118 -3,-7.411765 -8,-7.411765 -1.875,0 -8.01562,0 -12,0 z"></path><path id="path3122" style="fill:#ffdd55;stroke:#000000;stroke-width:0.25;stroke-linecap:round;stroke-linejoin:round;" d="m 121,134 h 9 v 2 h -9 z"></path><path id="path3124" style="fill:#ffdd55;stroke:#000000;stroke-width:0.25;stroke-linecap:round;stroke-linejoin:round;" d="m 124,134 c 0.36414,-0.63005 1.1975,-0.42294 1,0 l -1,2 c -0.40921,0.71506 -1.23265,0.48831 -1,0 z"></path><path id="path3126" style="fill:#ffdd55;stroke:#000000;stroke-width:0.25;stroke-linecap:round;stroke-linejoin:round;" d="m 127,134 c 0.36414,-0.63005 1.1975,-0.42294 1,0 l -1,2 c -0.40921,0.71506 -1.23265,0.48831 -1,0 z"></path><path id="path3128" style="fill:#ffdd55;stroke:#000000;stroke-width:0.25;stroke-linecap:round;stroke-linejoin:round;" d="m 121,134 c 0.36414,-0.63005 1.1975,-0.42294 1,0 l -1,2 c -0.40921,0.71506 -1.23265,0.48831 -1,0 z"></path><path id="path3132" style="fill:#ffdd55;stroke:#000000;stroke-width:0.25;stroke-linecap:round;stroke-linejoin:round;" d="M 130 134 L 129 136 C 128.76735 136.48831 129.59079 136.71506 130 136 L 130 134 z "></path><path id="path3134" style="fill:#ffdd55;stroke:#000000;stroke-width:0.25;stroke-linecap:round;stroke-linejoin:round;" d="M 120 138 L 120 140 L 130 140 L 130 138 L 120 138 z "></path><path id="path3136" style="fill:#ffdd55;stroke:#000000;stroke-width:0.25;stroke-linecap:round;stroke-linejoin:round;" d="m 123,138 c 0.36414,-0.63005 1.1975,-0.42294 1,0 l -1,2 c -0.40921,0.71506 -1.23265,0.48831 -1,0 z"></path><path id="path3138" style="fill:#ffdd55;stroke:#000000;stroke-width:0.25;stroke-linecap:round;stroke-linejoin:round;" d="m 126,138 c 0.36414,-0.63005 1.1975,-0.42294 1,0 l -1,2 c -0.40921,0.71506 -1.23265,0.48831 -1,0 z"></path><path id="path3140" style="fill:#ffdd55;stroke:#000000;stroke-width:0.25;stroke-linecap:round;stroke-linejoin:round;" d="m 120,138 c 0.36414,-0.63005 1.1975,-0.42294 1,0 l -1,2 c -0.40921,0.71506 -1.23265,0.48831 -1,0 z"></path><path id="path3142" style="fill:#ffdd55;stroke:#000000;stroke-width:0.25;stroke-linecap:round;stroke-linejoin:round;" d="m 129,138 c 0.36414,-0.63005 1.1975,-0.42294 1,0 l -1,2 c -0.40921,0.71506 -1.23265,0.48831 -1,0 z"></path><path id="path3089" style="fill:#ffdd55;stroke:#000000;stroke-width:0.25;stroke-linecap:round;stroke-linejoin:round;" d="m 70,134 h 9 v 2 h -9 z"></path><path id="path3093" style="fill:#ffdd55;stroke:#000000;stroke-width:0.25;stroke-linecap:round;stroke-linejoin:round;" d="m 73,134 c 0.364144,-0.63005 1.197498,-0.42294 1,0 l -1,2 c -0.409207,0.71506 -1.232655,0.48831 -1,0 z"></path><path id="path3095" style="fill:#ffdd55;stroke:#000000;stroke-width:0.25;stroke-linecap:round;stroke-linejoin:round;" d="m 76,134 c 0.364144,-0.63005 1.197498,-0.42294 1,0 l -1,2 c -0.409207,0.71506 -1.232655,0.48831 -1,0 z"></path><path id="path3099" style="fill:#ffdd55;stroke:#000000;stroke-width:0.25;stroke-linecap:round;stroke-linejoin:round;" d="M 70.710938 133.60547 C 70.481768 133.57958 70.182072 133.68498 70 134 L 70 136 L 71 134 C 71.098749 133.78853 70.940107 133.63136 70.710938 133.60547 z "></path><path id="path3103" style="fill:#ffdd55;stroke:#000000;stroke-width:0.25;stroke-linecap:round;stroke-linejoin:round;" d="m 79,134 c 0.364144,-0.63005 1.197498,-0.42294 1,0 l -1,2 c -0.409207,0.71506 -1.232655,0.48831 -1,0 z"></path><path id="path3105" style="fill:#ffdd55;stroke:#000000;stroke-width:0.25;stroke-linecap:round;stroke-linejoin:round;" d="m 70,138 h 10 l 1,2 H 70 Z"></path><path id="path3107" style="fill:#ffdd55;stroke:#000000;stroke-width:0.25;stroke-linecap:round;stroke-linejoin:round;" d="m 73,138 c 0.364144,-0.63005 1.197498,-0.42294 1,0 l -1,2 c -0.409207,0.71506 -1.232655,0.48831 -1,0 z"></path><path id="path3109" style="fill:#ffdd55;stroke:#000000;stroke-width:0.25;stroke-linecap:round;stroke-linejoin:round;" d="m 76,138 c 0.364144,-0.63005 1.197498,-0.42294 1,0 l -1,2 c -0.409207,0.71506 -1.232655,0.48831 -1,0 z"></path><path id="path3111" style="fill:#ffdd55;stroke:#000000;stroke-width:0.25;stroke-linecap:round;stroke-linejoin:round;" d="M 70.710938 137.60547 C 70.481768 137.57958 70.182072 137.68498 70 138 L 70 140 L 71 138 C 71.098749 137.78853 70.940107 137.63136 70.710938 137.60547 z "></path><path id="path3113" style="fill:#ffdd55;stroke:#000000;stroke-width:0.25;stroke-linecap:round;stroke-linejoin:round;" d="m 79,138 c 0.364144,-0.63005 1.197498,-0.42294 1,0 l -1,2 c -0.409207,0.71506 -1.232655,0.48831 -1,0 z"></path><path id="path3352-6-0-1" class="outline" style="fill:none;stroke:#000000;stroke-linecap:round;stroke-linejoin:round;" d="m 77,91.999997 c -4.999999,0 -7,2.112132 -7,7.40625 V 145 h 30 30 V 99.406247 c 0,-5.294118 -3,-7.40625 -8,-7.40625 h -12 v 2.125 c 0,1.875 0,3.875 -5,6.875003 -5,3 -5,3 -5,3 0,0 0,0 -5,-3 -5,-3.000003 -5,-5.000003 -5,-6.875003 v -2.125 z"></path><path id="path5728-6" class="m" style="fill:#ff99ff;stroke:#000000;" d="m 78,106 c 0,44.99351 0,40.90319 21.999996,40.90319 C 122,146.90319 122,150.99351 122,106"></path><path id="path3056" class="outline" style="fill:none;stroke:#000000;" d="m 78,106 c 0,44.99351 0,40.90319 21.999996,40.90319 C 122,146.90319 122,150.99351 122,106"></path><path id="path3057" style="fill:#ffcc00;stroke:#000000;stroke-width:0.49999997;stroke-linecap:round;stroke-linejoin:round;" d="m 110,115 c 0,-3.80953 2.37859,-10.01736 3.33333,-10 0.47611,0.009 2.85715,6.19047 2.85715,9.52381 -0.1205,-0.93282 -0.95238,-3.33334 -2.38096,-3.33334 -0.95238,0 -3.09717,2.31798 -3.80952,3.80953 z"></path><path id="path3352-6-0-1-0" class="outline" style="fill:#000000;stroke:#000000;stroke-linecap:round;" d="m 104,94.999997 c 5,0 5,-2 6,-4 v 3.125 c 0,2.647059 -2,4.875 -5,6.875003 l -5,3 -5,-3 c -3,-2.000003 -5,-4.757356 -5,-6.875003 v -3.125 c 1,2 1,4 6,4 z"></path></g></g>
        <g class="dsgn-0 cat-layer cat-ba"><g class="des-layer des-loaded"><path id="path3164" style="fill:#cccccc;stroke:#000000;stroke-width:1px;" d="m 99,126 c 5.55436,5.55436 19.48773,7.04405 22.48773,7.04405 -0.002,3.1306 -0.80108,7.90433 -2.07301,9.99497 C 113.79829,143.28413 97.797507,139.55279 91,132 82,122 79,108 80,92 h 10 c -1,15 1,26 9,34 z"></path><path id="path3166" style="fill:none;stroke:#999999;stroke-width:2;stroke-dasharray:4, 2;" d="M 119,141 C 113.38357,141.24511 99.279635,137.84021 93,131 84.082139,121.28606 81.093491,107.98408 82,93"></path><path id="path3936" style="fill:none;stroke:#999999;stroke-width:2;stroke-dasharray:4, 2;" d="m 120,138 c -5.61643,0.24511 -18.97517,-2.50802 -25,-9 -8.471989,-9.12888 -10.906509,-21.01592 -10,-36"></path><path id="path3938" style="fill:none;stroke:#999999;stroke-width:2;stroke-dasharray:4, 2;" d="m 120,135 c -5.61643,0.24511 -17.48237,-2.04646 -23,-8 -7.969109,-8.59871 -9.906509,-19.01592 -9,-34"></path></g></g>
        <g class="dsgn-0 cat-layer cat-fc-t clip-ha"></g>
        <g class="dsgn-0 cat-layer cat-no clip-ha"><g class="des-layer des-loaded"><path id="path4268" class="ss" style="fill:#ffbd80;" d="m 94,71.958061 c 2.399998,-1.840091 3.599997,-1.797949 6,0 2.39999,-1.797949 3.59999,-1.797952 5.99999,0 -0.0125,2.777227 -3.54305,1.929738 -5.99727,1.845733 C 97.614126,73.902394 94,74.747256 94,71.958061 Z"></path><path id="path4264" class="ss" style="fill:#ffbd80;" d="m 96,69 c 0,-5.514934 1.593252,-8.897013 2.999994,-10 0,3.308961 -1.593252,2.279092 -2.999994,10 z"></path><path id="path3846" style="fill:#000000;" d="m 95.001807,73.67376 c -0.60629,-0.410014 -0.866325,-0.88826 -0.841924,-1.416501 0.06165,-1.334588 0.597649,-2.823734 1.061083,-3.313802 -0.881137,0.338744 -1.575158,2.090649 -1.578813,3.157151 -0.0033,0.966586 0.584665,1.597334 1.359654,1.573152 z"></path><path id="path3770" style="opacity:0.25;fill:#000000;" d="m 94,71.958061 c 2.399998,-1.840091 3.599997,-1.797949 6,0 2.39999,-1.797949 3.59999,-1.797952 5.99999,0 -0.0125,2.777227 -3.54305,1.929738 -5.99727,1.845733 C 97.614126,73.902394 94,74.747256 94,71.958061 Z"></path><path id="path4266" style="opacity:0.25;fill:#000000;" d="m 96,69 c 0,-5.514934 1.593252,-8.897013 2.999994,-10 0,3.308961 -1.593252,2.279092 -2.999994,10 z"></path><path id="path4270" style="fill:#000000;" d="m 105.00493,73.67376 c 0.60629,-0.410014 0.86632,-0.88826 0.84192,-1.416501 -0.0617,-1.334588 -0.59765,-2.823734 -1.06108,-3.313802 0.88114,0.338744 1.57516,2.090649 1.57881,3.157151 0.003,0.966586 -0.58466,1.597334 -1.35965,1.573152 z"></path><path id="path3776" style="fill:#000000;" d="m 98.426882,72.333081 a 1.6704187,0.65965054 3.8601121 0 1 -0.508753,0.864553 1.6704187,0.65965054 3.8601121 0 1 -2.272327,-0.295475 1.6704187,0.65965054 3.8601121 0 1 0.328846,-0.887949 1.6704187,0.65965054 3.8601121 0 1 2.298378,0.22517"></path><path id="path4272" style="fill:#000000;" d="m 101.57311,72.333081 a 0.65965054,1.6704187 86.139888 0 0 0.50875,0.864553 0.65965054,1.6704187 86.139888 0 0 2.27233,-0.295475 0.65965054,1.6704187 86.139888 0 0 -0.32885,-0.887949 0.65965054,1.6704187 86.139888 0 0 -2.29838,0.22517"></path></g></g>
        <g class="dsgn-0 cat-layer cat-mo clip-ha"><g class="des-layer des-loaded"><path id="path3293" style="fill:#000000;" d="m 91,80 c 2.062337,3.125337 4.864382,3.989065 9,3.98189 4.17404,-0.0072 7.07243,-0.915636 9,-3.98189 -2.87114,2.423679 -6.98571,2.263974 -9,2.25 -2.071457,-0.01437 -5.902733,0.318972 -9,-2.25 z"></path><path id="path3309" class="ss" style="fill:#ffbd80;" d="m 100,85.875 c -0.825,0 -3.241319,0.800009 -3.999406,2.065347 1.358462,-0.81531 2.793295,-1.08466 3.975982,-1.065347 0.850674,0.01389 2.698204,0.25035 3.997734,1.098474 C 103.05225,86.544164 100.825,85.875 100,85.875 Z"></path><path id="path3309-3" class="ss" style="fill:#ffbd80;" d="m 90.070527,79.053579 c -0.341994,0.359479 -0.201695,1.276357 0.01481,2.15155 -0.07068,-0.975192 -0.03858,-1.26808 0.459789,-1.775099 0.358463,-0.364684 0.635739,-0.45378 1.724748,-0.601176 -1.003395,-0.14934 -1.857359,-0.134747 -2.199353,0.224725 z"></path><path id="path3309-3-6" class="ss" style="fill:#ffbd80;" d="m 110.05952,79.081566 c 0.3753,0.37314 0.22135,1.324861 -0.0162,2.233314 0.0776,-1.012252 0.0424,-1.31627 -0.50456,-1.842557 -0.39338,-0.378543 -0.69766,-0.471025 -1.89273,-0.624021 1.10112,-0.155017 2.03826,-0.139868 2.41356,0.233264 z"></path><path id="path3455" style="opacity:0.25;fill:#000000;" d="m 100,85.875 c -0.825,0 -3.241319,0.800009 -3.999406,2.065347 1.358462,-0.81531 2.793295,-1.08466 3.975982,-1.065347 0.850674,0.01389 2.698204,0.25035 3.997734,1.098474 C 103.05225,86.544164 100.825,85.875 100,85.875 Z"></path></g></g>
        <g class="dsgn-0 cat-layer cat-fh clip-ha"></g>
        <g class="dsgn-0 cat-layer cat-eb clip-ha"><g class="des-layer des-loaded"><path id="path3706" class="outline" style="fill:none;stroke:#000000;stroke-width:0.25;stroke-linecap:round;stroke-linejoin:round;" d="m 77.929728,54.075248 c 0,0.569653 0,1.139304 0,1.708957"></path><path id="path3709" class="outline" style="fill:none;stroke:#000000;stroke-width:0.24999999;stroke-linecap:round;stroke-linejoin:round;" d="m 78.69548,52.99989 c 0,0.965234 0,1.930466 0,2.8957"></path><path id="path3711" class="outline" style="fill:none;stroke:#000000;stroke-width:0.24999999;stroke-linecap:round;stroke-linejoin:round;" d="m 121.4919,52.849522 c 0,1.086498 0,2.172996 0,3.259494"></path><path id="path3717" class="outline" style="fill:none;stroke:#000000;stroke-width:0.24999999;stroke-linecap:round;stroke-linejoin:round;" d="m 122.14055,53.804991 c 0,0.749823 0,1.499644 0,2.249467"></path><path id="path3455" class="outline" style="fill:none;stroke:#000000;stroke-width:0.25;stroke-linecap:round;stroke-linejoin:round;" d="m 79.374791,52.364677 c 0,1.218739 0,2.437478 0,3.656217"></path><path id="path3457" class="outline" style="fill:none;stroke:#000000;stroke-width:0.25;stroke-linecap:round;stroke-linejoin:round;" d="m 120.81261,52.149489 c 0,1.318946 0,2.637889 0,3.956836"></path><path id="path3337" class="s" style="fill:#572b00;" d="m 80,52 0,4 c 2,-1 11,-2 20,-1 9,-1 18,0 20,1 l 0,-4 c -2,-1 -15,1 -20,1 -6.644351,-0.117902 -18,-2 -20,-1 z"></path><path id="path3456" class="outline" style="fill:none;stroke:#000000;stroke-width:0.25;stroke-linecap:round;stroke-linejoin:round;" d="m 80,52 0,4 c 2,-1 11,-2 20,-1 9,-1 18,0 20,1 l 0,-4 c -2,-1 -15,1 -20,1 -6.644351,-0.117902 -18,-2 -20,-1 z"></path></g></g>
        <g class="dsgn-0 cat-layer cat-ey clip-ha"><g class="des-layer des-loaded"><path id="path3640-9" style="fill:#ffffff;" d="m 109,58.999996 c 4,-5 8,-2 9,2 -1,4 0,0 -1,4 -2,1 -6,1 -8,0"></path><path id="path3642-2" style="fill:none;stroke:#000000;stroke-width:0.40000001;stroke-linecap:round;stroke-linejoin:round;" d="m 117,64.999996 c -2,1 -6,1 -8,0"></path><path id="path3644-4" style="fill:none;stroke:#000000;stroke-width:1;stroke-linecap:round;stroke-linejoin:round;" d="m 109,58.999996 c 4,-5 8,-2 9,2"></path><path id="path3646-5" style="fill:#ffffff;" d="m 91,58.999996 c -4,-5 -8,-2 -9,2 1,4 0,0 1,4 2,1 6,1 8,0"></path><path id="path3658-7" style="fill:none;stroke:#000000;stroke-width:0.40000001;stroke-linecap:round;stroke-linejoin:round;" d="m 83,64.999996 c 2,1 6,1 8,0"></path><path id="path3660-1" style="fill:none;stroke:#000000;stroke-width:1;stroke-linecap:round;stroke-linejoin:round;" d="m 91,58.999996 c -4,-5 -8,-2 -9,2"></path><path id="path3205-3-5" class="m" style="fill:#5a2d0c;" d="m 90.500003,61.468633 a 3.499996,3.4999997 0 0 1 -3.500004,3.5 3.499996,3.4999997 0 0 1 -3.499996,-3.5 3.499996,3.4999997 0 0 1 3.499996,-3.5 3.499996,3.4999997 0 0 1 3.500004,3.5 z"></path><path id="path4244-5" class="s" style="opacity:0.75;fill:#2d1606;" d="m 86.437678,58.720255 0.04434,1.284192 -0.960358,-0.817395 0.625253,1.252475 -1.517831,-0.873569 1.043921,1.202408 -1.393531,-0.167252 1.411483,0.605076 -1.696639,0.164456 1.699512,0.279476 -1.426075,0.595524 1.402599,-0.114249 -1.033458,1.397452 1.472146,-1.084586 -0.632302,1.553336 0.832006,-1.085716 -0.11326,1.534935 0.607748,-1.672234 0.259439,1.586296 0.21177,-1.542458 0.894789,1.489483 -0.355872,-1.531876 1.104782,0.807507 -0.963222,-1.201351 1.64291,0.970883 -1.174105,-1.159891 1.115511,0.132547 -1.180517,-0.642877 1.660048,-0.216498 -1.444812,-0.305002 1.042669,-0.670048 -1.353114,0.364937 1.531585,-1.016836 -1.759653,0.715434 0.892466,-1.293559 -1.12806,0.894367 0.342903,-1.398274 -0.784618,1.37672 -0.206586,-1.568232 -0.173041,1.585522 -0.540789,-1.431122 z"></path><path id="path4260-4" class="s" style="fill:#2d1606;" d="m 86.546498,59.395433 0.01596,0.797173 -0.676499,-0.582596 0.323214,0.887158 -0.988674,-0.449956 0.639016,0.781768 -1.023379,-0.09025 1.000832,0.483035 -1.132811,0.166628 1.116852,0.234375 -0.935816,0.481071 0.959483,-0.07238 -0.769426,1.080633 1.111155,-0.78303 -0.434149,1.199313 0.65513,-0.878398 -0.10531,1.223221 0.521149,-1.249885 0.236825,1.147585 0.185718,-1.119522 0.731416,1.1596 -0.26396,-1.206314 0.816962,0.622713 -0.635484,-0.919069 1.265615,0.69737 -0.943695,-0.917969 0.919692,0.110719 -0.900773,-0.550102 1.249282,-0.186551 -1.094995,-0.26802 0.759995,-0.489228 -1.105229,0.237276 1.050887,-0.730469 -1.183767,0.40715 0.591291,-0.935815 -0.820524,0.652785 0.19582,-0.941244 -0.556306,0.838283 -0.1716,-0.940114 -0.164338,0.924155 z"></path><path id="path4263-7" style="opacity:0.5;fill:#000000;" d="m 86.662992,59.746605 -0.03928,0.576202 -0.477625,-0.328479 0.146437,0.544653 -0.701412,-0.206888 0.340706,0.516603 -0.515146,0.03128 0.536793,0.350453 -0.668772,0.166628 0.641764,0.201229 -0.482825,0.348489 0.473347,0.03811 -0.327485,0.594498 0.636068,-0.341089 -0.168984,0.691081 0.367868,-0.359117 0.04937,0.54926 0.355421,-0.60907 0.225776,0.672498 0.152572,-0.677581 0.466251,0.62927 -0.05404,-0.609692 0.463408,0.236014 -0.292979,-0.565516 0.746335,0.332768 -0.446511,-0.498124 0.544041,-0.01082 -0.514073,-0.406471 0.685806,-0.186552 -0.465228,-0.234873 0.262811,-0.279306 -0.674336,0.0605 0.56475,-0.476352 -0.708679,0.208276 0.37032,-0.648553 -0.566407,0.453911 0.107432,-0.709224 -0.401627,0.551021 -0.138454,-0.630755 -0.15329,0.58165 z"></path><ellipse id="path3211-6" style="fill:#000000;" cx="87" cy="61.468632" rx="1.5000001" ry="1.4999993"></ellipse><path id="path4657-5" class="s" style="opacity:0.5;fill:#2d1606;" d="m 84.917709,64.19778 c -2.648594,-2.272369 -1.192652,-4.920173 0.262783,-5.897874 1.455437,-0.9777 6.163784,-0.265891 5.167559,4.460934 -0.272434,-1.843483 -2.455692,-3.439176 -3.81242,-2.977759 -1.356727,0.461418 -2.316564,1.646751 -1.617922,4.414699 z"></path><path id="path3207-6" class="s" style="fill:#2d1606;" d="m 84.428682,63.859816 c -1.870622,-2.214406 -0.712465,-4.475108 0.742983,-5.452809 1.455437,-0.9777 5.212438,-0.508099 5.425229,3.348271 -1.047863,-2.052109 -2.483835,-2.915369 -4.369298,-2.52387 -1.382353,0.287033 -2.539333,2.044346 -1.798914,4.628408 z"></path><ellipse id="ellipse4659-9" class="h" style="fill:#874312;" cx="88.402512" cy="59.176167" rx="0.69325191" ry="0.67658567"></ellipse><ellipse id="path3209-3" style="fill:#ffffff;" cx="88.431786" cy="59.264011" rx="0.5" ry="0.49504599"></ellipse><ellipse id="path3213-7" style="fill:none;stroke:#000000;stroke-width:0.5;stroke-linecap:round;stroke-linejoin:round;" cx="87" cy="61.468632" rx="3.499999" ry="3.5"></ellipse><path id="path4286-4" class="m" style="fill:#5a2d0c;" d="m 116.5,61.531362 a 3.499996,3.4999997 0 0 1 -3.5,3.5 3.499996,3.4999997 0 0 1 -3.5,-3.5 3.499996,3.4999997 0 0 1 3.5,-3.5 3.499996,3.4999997 0 0 1 3.5,3.5 z"></path><path id="path4288-5" class="s" style="opacity:0.75;fill:#2d1606;" d="m 111.38446,59.236971 0.54568,1.163331 -1.2044,-0.373934 1.06737,0.905736 -1.73907,-0.206382 1.43263,0.695077 -1.34705,0.394166 1.53571,0.0013 -1.49531,0.81834 1.67251,-0.411299 -1.07704,1.108298 1.2447,-0.656558 -0.40074,1.691252 0.92711,-1.576083 0.0294,1.67684 0.33807,-1.325409 0.49941,1.45583 -0.0987,-1.776508 0.86228,1.356507 -0.41179,-1.501483 1.40839,1.017667 -0.92955,-1.268552 1.33331,0.308056 -1.35801,-0.725839 1.89233,0.246675 -1.53562,-0.604793 1.07778,-0.316756 -1.33821,-0.126908 1.4412,-0.851799 -1.44836,0.287675 0.69522,-1.026061 -1.10062,0.867594 1.00838,-1.537158 -1.3366,1.349712 0.31194,-1.540285 -0.68553,1.265889 -0.23452,-1.420479 -0.18008,1.574343 -0.80658,-1.360679 0.46433,1.52585 -1.05996,-1.103203 z"></path><path id="path4290-2" class="s" style="fill:#2d1606;" d="m 111.75,59.814975 0.32817,0.726668 -0.85109,-0.269662 0.64601,0.688609 -1.08596,-0.02496 0.89493,0.467534 -0.97643,0.319419 1.11015,0.05059 -0.97604,0.598638 1.11905,-0.223661 -0.67128,0.810292 0.85373,-0.443824 -0.28252,1.29613 0.71374,-1.156868 0.0724,1.273417 0.25697,-1.065245 0.38415,1.166099 -0.0123,-1.354126 0.66899,0.962025 -0.26944,-1.102372 1.12846,0.778599 -0.71703,-1.005355 0.996,0.25132 -0.94567,-0.595164 1.43789,0.143547 -1.22865,-0.472957 0.88915,-0.259828 -1.04451,-0.151603 1.07529,-0.662749 -1.11217,0.184122 0.50641,-0.748654 -0.92291,0.652748 0.67901,-1.084847 -0.92832,0.839821 0.17569,-1.092935 -0.49775,0.922837 -0.19005,-0.942424 -0.18188,0.989504 -0.52744,-0.796914 0.21229,0.91433 z"></path><path id="path4292-5" style="opacity:0.5;fill:#000000;" d="m 111.99519,60.092055 0.19043,0.545242 -0.56831,-0.114213 0.3488,0.443201 -0.72626,0.08558 0.5164,0.341021 -0.46136,0.231322 0.63135,0.111154 -0.54938,0.416171 0.6692,-0.06728 -0.3069,0.510266 0.45021,-0.151084 -0.0674,0.675383 0.45072,-0.563721 0.11639,0.701856 0.19702,-0.474836 0.2614,0.485594 0.0873,-0.699763 0.47202,0.52955 -0.12619,-0.682989 0.67613,0.39525 -0.28939,-0.539348 0.51888,0.03478 -0.49174,-0.404762 0.81707,0.0125 -0.60641,-0.28243 0.49596,-0.223868 -0.63249,-0.17159 0.55721,-0.441191 -0.52011,-0.03302 0.13181,-0.360146 -0.59622,0.320776 0.33195,-0.660044 -0.56969,0.470157 0.0855,-0.741926 -0.34232,0.640067 -0.18009,-0.69434 -0.1526,0.664556 -0.37533,-0.525503 0.0877,0.595074 z"></path><ellipse id="ellipse4298-4" style="fill:#000000;" cx="113" cy="61.531361" rx="1.5000001" ry="1.4999993"></ellipse><path id="path4300-7" class="s" style="opacity:0.5;fill:#2d1606;" d="m 110.91771,64.260509 c -2.6486,-2.272369 -1.19266,-4.920173 0.26278,-5.897874 1.45544,-0.9777 6.16378,-0.265891 5.16756,4.460934 -0.27244,-1.843483 -2.45569,-3.439176 -3.81242,-2.977759 -1.35673,0.461418 -2.31657,1.646751 -1.61792,4.414699 z"></path><path id="path4302-4" class="s" style="fill:#2d1606;" d="m 110.42868,63.922545 c -1.87062,-2.214406 -0.71246,-4.475108 0.74298,-5.452809 1.45544,-0.9777 5.21244,-0.508099 5.42523,3.348271 -1.04786,-2.052109 -2.48383,-2.915369 -4.3693,-2.52387 -1.38235,0.287033 -2.53933,2.044346 -1.79891,4.628408 z"></path><ellipse id="ellipse4304-4" class="h" style="fill:#874312;" cx="114.40251" cy="59.238895" rx="0.69325191" ry="0.67658567"></ellipse><ellipse id="ellipse4306-3" style="fill:#ffffff;" cx="114.43179" cy="59.32674" rx="0.5" ry="0.49504599"></ellipse><ellipse id="ellipse4308-0" style="fill:none;stroke:#000000;stroke-width:0.5;stroke-linecap:round;stroke-linejoin:round;" cx="113" cy="61.531361" rx="3.499999" ry="3.5"></ellipse></g></g>
        <g class="dsgn-0 cat-layer cat-fa clip-ha"><g class="des-layer des-loaded"><path id="path3974" style="fill:none;stroke:#000000;stroke-width:1.5;opacity:0.25;" d="m 80.447047,57.929788 c 3.619471,-3.901713 15.2209,-2.689617 16.641102,0.708131 2.189372,5.237908 -4.570242,18.99346 -15.047802,13.100444 -3.28588,-1.848109 -5.014634,-10.120446 -1.5933,-13.808575 z"></path><path id="path3976" style="fill:#000000;opacity:0.25;" d="m 85,55 -10,2 v 3 l 5,-1 c 0.963328,-1.580065 3.172637,-3.247015 5,-4 z"></path><path id="path3978" style="fill:none;stroke:#000000;stroke-width:1.5;opacity:0.25;" d="m 121.55295,57.929788 c -3.61947,-3.901713 -15.2209,-2.689617 -16.6411,0.708131 -2.18937,5.237908 4.57024,18.99346 15.0478,13.100444 3.28588,-1.848109 5.01464,-10.120446 1.5933,-13.808575 z"></path><path id="path3980" style="fill:#000000;opacity:0.25;" d="m 117,55 8,2 v 3 l -3,-1 c -0.96333,-1.580065 -3.17264,-3.247015 -5,-4 z"></path><path id="path3982" style="fill:#000000;opacity:0.25;" d="m 97,58 c 3,-2 5,-2 8,0 l -1,3 c -2,-2 -4,-2 -6,0 z"></path><path id="path3959" class="m" style="opacity:0.25;fill:#cccccc;" d="m 79.44705,56.929788 c 3.61947,-3.901713 15.2209,-2.689617 16.6411,0.708131 2.18937,5.237908 -4.57024,18.99346 -15.0478,13.100444 -3.28588,-1.848109 -5.01464,-10.120446 -1.5933,-13.808575 z"></path><path id="path3961" class="m" style="opacity:0.25;fill:#cccccc;" d="m 120.55295,56.929788 c -3.61947,-3.901713 -15.2209,-2.689617 -16.6411,0.708131 -2.18937,5.237908 4.57024,18.99346 15.0478,13.100444 3.28588,-1.848109 5.01464,-10.120446 1.5933,-13.808575 z"></path><path id="path3166" style="fill:none;stroke:#000000;stroke-width:1.5;" d="m 79.447047,56.929788 c 3.619471,-3.901713 15.2209,-2.689617 16.641102,0.708131 2.189372,5.237908 -4.570242,18.99346 -15.047802,13.100444 -3.28588,-1.848109 -5.014634,-10.120446 -1.5933,-13.808575 z"></path><path id="path3168" style="fill:#000000;" d="m 84,54 -9,2 v 3 l 4,-1 c 0.963328,-1.580065 3.172637,-3.247015 5,-4 z"></path><path id="path3166-7" style="fill:none;stroke:#000000;stroke-width:1.5;" d="m 120.55295,56.929788 c -3.61947,-3.901713 -15.2209,-2.689617 -16.6411,0.708131 -2.18937,5.237908 4.57024,18.99346 15.0478,13.100444 3.28588,-1.848109 5.01464,-10.120446 1.5933,-13.808575 z"></path><path id="path3168-6" style="fill:#000000;" d="m 116,54 9,2 v 3 l -4,-1 c -0.96333,-1.580065 -3.17264,-3.247015 -5,-4 z"></path><path id="path3963" style="fill:#000000;" d="m 96,57 c 3,-2 5,-2 8,0 l -1,3 c -2,-2 -4,-2 -6,0 z"></path></g></g>
        <g class="dsgn-0 cat-layer cat-hr clip-ha"><g class="des-layer des-loaded"><path id="path891" class="m" style="fill:#663300;" d="m 77.311428,77.72136 c 0.446006,4.422893 0.999608,11.085263 5.755866,14.133387 -5.86056,1.63555 -19.706943,6.175851 -18.880469,-2.117411 0.344672,-3.458611 4.366344,-6.311066 5.003748,-8.453941 0.665647,-2.237822 1.029605,-7.367759 1.029605,-7.367759 2.26561,3.069452 5.57757,4.233955 7.09125,3.805724 z"></path><path id="path3290" class="m" style="fill:#663300;" d="M 124.90559,57.483684 C 124.21758,43.727046 125.6894,33.71293 105.31475,36.887033 101.62968,37.461118 97.460559,37.281578 93.244472,36.25618 78.779431,32.738123 75.823411,49.359373 75.033233,58.120781 c -1.512497,-1.222324 -4.107545,-1.438864 -3.908848,-5.537383 2.711746,-15.46599 6.176005,-32.86691 29.576335,-32.32636 20.621,-1.571354 25.79195,16.650267 27.50299,32.645374 0.52275,3.394791 -1.95467,4.448069 -3.29812,4.581272 z"></path><path id="path910" class="outline" style="fill:none;stroke:#000000;stroke-width:1;stroke-linecap:round;stroke-linejoin:round;" d="m 77.311428,77.72136 c 0.446006,4.422893 0.999608,11.085263 5.755866,14.133387 -5.86056,1.63555 -19.706943,6.175851 -18.880469,-2.117411 0.344672,-3.458611 4.366344,-6.311066 5.003748,-8.453941 0.665647,-2.237822 1.029605,-7.367759 1.029605,-7.367759"></path><path id="path912" class="m" style="fill:#663300;" d="m 122.43407,77.72136 c -0.446,4.422893 -0.99961,11.085263 -5.75586,14.133387 5.86056,1.63555 19.70694,6.175851 18.88046,-2.117411 -0.34467,-3.458611 -4.36634,-6.311066 -5.00374,-8.453941 -0.66565,-2.237822 -1.02961,-7.367759 -1.02961,-7.367759 -2.26561,3.069452 -5.57757,4.233955 -7.09125,3.805724 z"></path><path id="path919" class="h" style="fill:#994d00;" d="m 126.73894,86.275105 c 0.63748,1.44022 4.28365,5.119905 -0.29562,6.858055 3.83246,-2.697879 0.28655,-4.325643 -0.63073,-7.424224 -0.41128,-1.389298 -0.36511,-3.163664 0.0562,-7.387742 0.16315,3.889949 0.30252,6.671551 0.87013,7.953911 z m -3.32337,-0.370456 c -0.27773,2.243069 -1.24791,5.074869 -3.47109,5.634264 2.22626,-1.167026 2.53875,-3.554072 2.95656,-6.576269 0.32235,-2.331687 0.57378,-3.327192 0.73276,-6.637403 0.14249,3.423757 0.0137,5.706581 -0.21823,7.579408 z m 5.58576,-2.195433 c 0.63749,1.44022 6.6978,7.18917 2.11852,8.92732 3.83247,-2.697879 -2.01723,-5.31889 -2.93451,-8.417471 -0.41128,-1.389298 -0.83414,-3.522337 -0.1645,-7.360152 -0.03,3.834769 0.41288,5.567943 0.98049,6.850303 z m -55.994767,2.565889 c -0.637485,1.44022 -4.283654,5.119905 0.295622,6.858055 -3.832466,-2.697879 -0.286553,-4.325643 0.630729,-7.424224 0.411278,-1.389298 0.365109,-3.163664 -0.05621,-7.387742 -0.163152,3.889949 -0.302524,6.671551 -0.870136,7.953911 z m 3.323363,-0.370456 c 0.277735,2.243069 1.247919,5.074869 3.471091,5.634264 -2.226257,-1.167026 -2.538747,-3.554072 -2.956558,-6.576269 -0.32235,-2.331687 -0.573778,-3.327192 -0.732758,-6.637403 -0.142486,3.423757 -0.01367,5.706581 0.218225,7.579408 z m 26.453324,-65.14426 c -0.98122,-0.06413 -0.85657,0.57567 0.0551,0.519987 2.88757,0.05406 6.60054,0.05063 11.70651,2.514923 -2.21325,-1.944743 -8.41687,-3.428965 -11.76168,-3.03491 z m -11.243562,1.66601 c -1.936239,0.149125 -7.2581,2.523778 -8.579555,4.951585 2.888176,-3.223391 7.192857,-4.040991 8.65767,-4.234807 1.153223,-0.224207 1.16023,-0.806447 -0.07811,-0.716778 z m 19.679632,4.400326 c 3.96393,1.996469 6.96959,1.855767 9.9501,5.483188 2.98051,3.627421 5.87693,14.891282 5.95432,20.273702 0.36214,-6.548633 -2.6753,-15.250762 -4.66929,-18.875051 -1.99399,-3.624288 -4.81643,-6.029658 -8.81306,-7.216717 -1.6768,-0.450816 -4.97795,-1.112246 -2.42207,0.334878 z M 92.240883,25.111207 c -5.200039,1.186781 -10.693762,4.725885 -13.614304,9.542797 -3.547893,5.851616 -4.858391,11.830486 -5.093757,20.987181 0.173929,-5.014777 1.268253,-9.606743 2.172268,-13.020002 0.904015,-3.413259 3.41521,-9.694951 7.333787,-12.138641 3.918576,-2.443691 7.876367,-4.074259 9.461436,-4.671589 0.709983,-0.467273 0.351506,-0.901232 -0.25943,-0.699746 z M 70.744167,83.709216 c -0.637485,1.44022 -6.697797,7.18917 -2.118521,8.92732 -3.832466,-2.697879 2.017229,-5.31889 2.934511,-8.417471 0.411278,-1.389298 0.834142,-3.522337 0.164506,-7.360152 0.02998,3.834769 -0.412884,5.567943 -0.980496,6.850303 z"></path><path id="path921" class="outline" style="fill:none;stroke:#000000;stroke-width:1;stroke-linecap:round;stroke-linejoin:round;" d="m 122.43407,77.72136 c -0.446,4.422893 -0.99961,11.085263 -5.75586,14.133387 5.86056,1.63555 19.70694,6.175851 18.88046,-2.117411 -0.34467,-3.458611 -4.36634,-6.311066 -5.00374,-8.453941 -0.66565,-2.237822 -1.02961,-7.367759 -1.02961,-7.367759"></path><path id="path892" class="outline" style="fill:none;stroke:#000000;stroke-linecap:round;" d="M 124.81975,57.434635 C 124.17313,43.677997 125.6894,33.71293 105.31475,36.887033 101.62968,37.461118 97.460559,37.281578 93.244472,36.25618 78.779431,32.738123 75.851001,49.524915 75.143594,57.98283"></path></g></g>
        <g class="dsgn-0 cat-layer cat-ha"></g>
        <g class="dsgn-0 cat-layer cat-bt-t"></g>
        <g class="dsgn-0 cat-layer cat-pt" transform="scale(1 1) translate(0 0)"></g>
        <g class="dsgn-0 cat-layer cat-lk"></g>
    </g>
    <g class="cat-design cat-design-1">
        <g class="dsgn-1 cat-layer cat-hr-b clip-ha"><!-- hr1b --></g>
        <g class="dsgn-1 cat-layer cat-ba-b clip-ha"><!-- ba1b --></g>
        <g class="dsgn-1 cat-layer cat-fc clip-ha"><!-- fc1 --></g>
        <g class="dsgn-1 cat-layer cat-eb-b clip-ha"><!-- eb1b --></g>
        <g class="dsgn-1 cat-layer cat-mu clip-ha"><!-- mu1 --></g>
        <g class="dsgn-1 cat-layer cat-bl"><!-- bl1 --></g>
        <g class="dsgn-1 cat-layer cat-sh"><!-- sh1 --></g>
        <g class="dsgn-1 cat-layer cat-bt"><!-- bt1 --></g>
        <g class="dsgn-1 cat-layer cat-ba"><!-- ba1 --></g>
        <g class="dsgn-1 cat-layer cat-fc-t clip-ha"><!-- fc1t --></g>
        <g class="dsgn-1 cat-layer cat-no clip-ha"><!-- no1 --></g>
        <g class="dsgn-1 cat-layer cat-mo clip-ha"><!-- mo1 --></g>
        <g class="dsgn-1 cat-layer cat-fh clip-ha"><!-- fh1 --></g>
        <g class="dsgn-1 cat-layer cat-eb clip-ha"><!-- eb1 --></g>
        <g class="dsgn-1 cat-layer cat-ey clip-ha"><!-- ey1 --></g>
        <g class="dsgn-1 cat-layer cat-fa clip-ha"><!-- fa1 --></g>
        <g class="dsgn-1 cat-layer cat-hr clip-ha"><!-- hr1 --></g>
        <g class="dsgn-1 cat-layer cat-ha"><!-- ha1 --></g>
        <g class="dsgn-1 cat-layer cat-bt-t"><!-- bt1t --></g>
        <g class="dsgn-1 cat-layer cat-pt"><!-- pt1 --></g>
        <g class="dsgn-1 cat-layer cat-lk"></g>
    </g>
    <g class="cat-design cat-design-bg" transform="translate(-0.0 -0.0) scale(1.0 1)">
        <g class="cat-layer cat-bg-t"></g>
    </g>
</svg>
