<?xml version="1.0" encoding="UTF-8" standalone="no"?>
<!-- Generator: Adobe Illustrator 18.0.0, SVG Export Plug-In . SVG Version: 6.00 Build 0)  -->

<svg
   version="1.1"
   id="Capa_1"
   x="0px"
   y="0px"
   viewBox="0 0 490 490"
   style="enable-background:new 0 0 490 490;"
   xml:space="preserve"
   width="512px"
   height="512px"
   sodipodi:docname="home-delivery-service.svg"
   inkscape:version="1.1.2 (b8e25be8, 2022-02-05)"
   xmlns:inkscape="http://www.inkscape.org/namespaces/inkscape"
   xmlns:sodipodi="http://sodipodi.sourceforge.net/DTD/sodipodi-0.dtd"
   xmlns="http://www.w3.org/2000/svg"
   xmlns:svg="http://www.w3.org/2000/svg"><defs
   id="defs1288" /><sodipodi:namedview
   id="namedview1286"
   pagecolor="#ffffff"
   bordercolor="#666666"
   borderopacity="1.0"
   inkscape:pageshadow="2"
   inkscape:pageopacity="0.0"
   inkscape:pagecheckerboard="0"
   showgrid="false"
   inkscape:zoom="1.7050781"
   inkscape:cx="112.89805"
   inkscape:cy="263.0378"
   inkscape:window-width="1296"
   inkscape:window-height="1081"
   inkscape:window-x="0"
   inkscape:window-y="25"
   inkscape:window-maximized="0"
   inkscape:current-layer="Capa_1" />
<g
   id="g1253"
   style="fill:#9b33f5;fill-opacity:1">
	<g
   id="g1243"
   style="fill:#9b33f5;fill-opacity:1">
		<circle
   cx="45.303"
   cy="46.545"
   r="45.303"
   fill="#f56a6a"
   id="circle1239"
   style="fill:#9b33f5;fill-opacity:1" />
		<path
   d="M180.95,180.706c-3.127-10.258-13.46-15.58-24.234-12.913c-2.269,0.562-24.048,6.797-44.012-4.012    c-17.35-9.394-28.576-27.506-32.559-33.711c-8.06-12.556-19.313-22.588-34.841-22.588c-21.072,0-38.149,17.079-38.149,38.147    v119.885c0,13.415,6.922,25.21,17.39,32.012v170.472c0,11.468,9.294,20.761,20.759,20.761s20.76-9.293,20.76-20.761V297.525    c10.467-6.802,17.39-18.597,17.39-32.011v-74.35c3.374,2.426,6.959,4.707,10.761,6.766c15.541,8.413,31.75,10.765,45.01,10.765    c16.155,0,27.938-3.489,28.812-3.756C178.291,201.813,184.074,190.964,180.95,180.706z"
   fill="#f56a6a"
   id="path1241"
   style="fill:#9b33f5;fill-opacity:1" />
	</g>
	<g
   id="g1249"
   style="fill:#9b33f5;fill-opacity:1">
		<circle
   cx="444.697"
   cy="46.545"
   r="45.303"
   fill="#f56a6a"
   id="circle1245"
   style="fill:#9b33f5;fill-opacity:1" />
		<path
   d="M309.05,180.706c3.127-10.258,13.972-16.04,24.235-12.913c0.121,0.034,24.048,6.797,44.012-4.012    c17.35-9.394,28.575-27.506,32.559-33.711c8.06-12.556,19.313-22.588,34.841-22.588c21.072,0,38.149,17.079,38.149,38.147v119.885    c0,13.415-6.923,25.21-17.39,32.012v170.472c0,11.468-9.294,20.761-20.76,20.761c-11.465,0-20.76-9.293-20.76-20.761V297.525    c-10.467-6.802-17.391-18.597-17.391-32.011v-74.35c-3.374,2.426-6.959,4.707-10.76,6.766    c-15.541,8.413-31.75,10.765-45.011,10.765c-16.155,0-27.937-3.489-28.811-3.756C311.708,201.814,305.927,190.964,309.05,180.706z    "
   fill="#f56a6a"
   id="path1247"
   style="fill:#9b33f5;fill-opacity:1" />
	</g>
	<path
   d="M249.749,113.173h-36.702c-0.604,0-1.093,0.489-1.093,1.093v20.428c0,1.584-1.289,2.873-2.874,2.873H191.02   c-1.584,0-2.873-1.289-2.873-2.873v-20.428c0-0.604-0.489-1.093-1.093-1.093h-36.703c-8.138,0-14.759,6.621-14.759,14.759v24.693   c0,0.51,0.352,0.951,0.849,1.065c1.915,0.438,4.248,0.652,7.134,0.652c5.222,0,11.063-0.711,15.754-1.279   c1.041-0.126,5.614-0.53,6.797-0.557c13.289-0.294,24.919,9.337,29.322,23.779c5.553,18.239-4.763,37.595-22.995,43.148   c-1.482,0.452-15.007,4.414-33.228,4.414c-0.713,0-1.891-0.022-2.52-0.035c-0.294-0.006-0.577,0.107-0.786,0.313   c-0.21,0.206-0.327,0.487-0.327,0.78v10.513c0,8.139,6.621,14.76,14.759,14.76h99.398c8.139,0,14.76-6.621,14.76-14.76V127.932   C264.509,119.794,257.888,113.173,249.749,113.173z"
   fill="#f56a6a"
   id="path1251"
   style="fill:#9b33f5;fill-opacity:1" />
</g>
<g
   id="g1255"
   style="fill:#9b33f5;fill-opacity:1">
</g>
<g
   id="g1257"
   style="fill:#9b33f5;fill-opacity:1">
</g>
<g
   id="g1259"
   style="fill:#9b33f5;fill-opacity:1">
</g>
<g
   id="g1261"
   style="fill:#9b33f5;fill-opacity:1">
</g>
<g
   id="g1263"
   style="fill:#9b33f5;fill-opacity:1">
</g>
<g
   id="g1265"
   style="fill:#9b33f5;fill-opacity:1">
</g>
<g
   id="g1267"
   style="fill:#9b33f5;fill-opacity:1">
</g>
<g
   id="g1269"
   style="fill:#9b33f5;fill-opacity:1">
</g>
<g
   id="g1271"
   style="fill:#9b33f5;fill-opacity:1">
</g>
<g
   id="g1273"
   style="fill:#9b33f5;fill-opacity:1">
</g>
<g
   id="g1275"
   style="fill:#9b33f5;fill-opacity:1">
</g>
<g
   id="g1277"
   style="fill:#9b33f5;fill-opacity:1">
</g>
<g
   id="g1279"
   style="fill:#9b33f5;fill-opacity:1">
</g>
<g
   id="g1281"
   style="fill:#9b33f5;fill-opacity:1">
</g>
<g
   id="g1283"
   style="fill:#9b33f5;fill-opacity:1">
</g>
</svg>
