<?xml version="1.0" encoding="UTF-8" standalone="no"?>
<!-- Generator: Adobe Illustrator 18.1.1, SVG Export Plug-In . SVG Version: 6.00 Build 0)  -->

<svg
   version="1.1"
   id="Capa_1"
   x="0px"
   y="0px"
   viewBox="0 0 24.966 24.966"
   style="enable-background:new 0 0 24.966 24.966;"
   xml:space="preserve"
   width="512px"
   height="512px"
   sodipodi:docname="icon.svg"
   inkscape:version="1.1.2 (b8e25be8, 2022-02-05)"
   xmlns:inkscape="http://www.inkscape.org/namespaces/inkscape"
   xmlns:sodipodi="http://sodipodi.sourceforge.net/DTD/sodipodi-0.dtd"
   xmlns="http://www.w3.org/2000/svg"
   xmlns:svg="http://www.w3.org/2000/svg"><defs
   id="defs1384" /><sodipodi:namedview
   id="namedview1382"
   pagecolor="#ffffff"
   bordercolor="#666666"
   borderopacity="1.0"
   inkscape:pageshadow="2"
   inkscape:pageopacity="0.0"
   inkscape:pagecheckerboard="0"
   showgrid="false"
   inkscape:zoom="1.7050781"
   inkscape:cx="112.89805"
   inkscape:cy="263.0378"
   inkscape:window-width="1296"
   inkscape:window-height="1081"
   inkscape:window-x="0"
   inkscape:window-y="25"
   inkscape:window-maximized="0"
   inkscape:current-layer="Capa_1" />
<g
   id="g1349"
   style="fill:#9b33f5;fill-opacity:1">
	<path
   d="M24.966,12.466v0.961c0,0.532-0.43,0.961-0.961,0.961h-1.923v1.923c0,0.532-0.43,0.961-0.961,0.961   H20.16c-0.532,0-0.961-0.43-0.961-0.961v-1.923h-1.923c-0.532,0-0.961-0.43-0.961-0.961v-0.961c0-0.532,0.43-0.961,0.961-0.961   h1.923V9.582c0-0.532,0.43-0.961,0.961-0.961h0.961c0.532,0,0.961,0.43,0.961,0.961v1.923h1.923   C24.536,11.504,24.966,11.934,24.966,12.466z M15.272,20.482c0.051,0.206,0.059,0.364,0.026,0.465   c-0.036,0.102-0.145,0.156-0.331,0.156h-3.153c-0.288,0-0.484-0.066-0.586-0.194c-0.102-0.131-0.195-0.335-0.279-0.608   l-0.816-3.028H4.989l-0.85,3.104c-0.086,0.276-0.195,0.468-0.331,0.57c-0.136,0.102-0.322,0.156-0.56,0.156H0.427   c-0.187,0-0.314-0.038-0.381-0.117c-0.069-0.077-0.061-0.262,0.025-0.557L4.978,4.617c0.085-0.241,0.186-0.428,0.305-0.559   C5.4,3.93,5.629,3.864,5.97,3.864h3.203c0.356,0,0.588,0.071,0.699,0.209c0.11,0.138,0.207,0.328,0.292,0.569L15.272,20.482z    M9.357,14.389l-1.712-6.35H7.519l-1.74,6.35H9.357z"
   fill="#f56a6a"
   id="path1347"
   style="fill:#9b33f5;fill-opacity:1" />
</g>
<g
   id="g1351"
   style="fill:#9b33f5;fill-opacity:1">
</g>
<g
   id="g1353"
   style="fill:#9b33f5;fill-opacity:1">
</g>
<g
   id="g1355"
   style="fill:#9b33f5;fill-opacity:1">
</g>
<g
   id="g1357"
   style="fill:#9b33f5;fill-opacity:1">
</g>
<g
   id="g1359"
   style="fill:#9b33f5;fill-opacity:1">
</g>
<g
   id="g1361"
   style="fill:#9b33f5;fill-opacity:1">
</g>
<g
   id="g1363"
   style="fill:#9b33f5;fill-opacity:1">
</g>
<g
   id="g1365"
   style="fill:#9b33f5;fill-opacity:1">
</g>
<g
   id="g1367"
   style="fill:#9b33f5;fill-opacity:1">
</g>
<g
   id="g1369"
   style="fill:#9b33f5;fill-opacity:1">
</g>
<g
   id="g1371"
   style="fill:#9b33f5;fill-opacity:1">
</g>
<g
   id="g1373"
   style="fill:#9b33f5;fill-opacity:1">
</g>
<g
   id="g1375"
   style="fill:#9b33f5;fill-opacity:1">
</g>
<g
   id="g1377"
   style="fill:#9b33f5;fill-opacity:1">
</g>
<g
   id="g1379"
   style="fill:#9b33f5;fill-opacity:1">
</g>
</svg>
