<?xml version="1.0" encoding="UTF-8" standalone="no"?>
<!-- Generator: Adobe Illustrator 19.0.0, SVG Export Plug-In . SVG Version: 6.00 Build 0)  -->

<svg
   version="1.1"
   id="Capa_1"
   x="0px"
   y="0px"
   viewBox="0 0 480 480"
   style="enable-background:new 0 0 480 480;"
   xml:space="preserve"
   width="512px"
   height="512px"
   sodipodi:docname="studying.svg"
   inkscape:version="1.1.2 (b8e25be8, 2022-02-05)"
   xmlns:inkscape="http://www.inkscape.org/namespaces/inkscape"
   xmlns:sodipodi="http://sodipodi.sourceforge.net/DTD/sodipodi-0.dtd"
   xmlns="http://www.w3.org/2000/svg"
   xmlns:svg="http://www.w3.org/2000/svg"><defs
   id="defs1044" /><sodipodi:namedview
   id="namedview1042"
   pagecolor="#ffffff"
   bordercolor="#666666"
   borderopacity="1.0"
   inkscape:pageshadow="2"
   inkscape:pageopacity="0.0"
   inkscape:pagecheckerboard="0"
   showgrid="false"
   inkscape:zoom="1.7050781"
   inkscape:cx="112.89805"
   inkscape:cy="263.0378"
   inkscape:window-width="1296"
   inkscape:window-height="1081"
   inkscape:window-x="0"
   inkscape:window-y="25"
   inkscape:window-maximized="0"
   inkscape:current-layer="Capa_1" />
<g
   id="g949"
   style="fill:#9b33f5;fill-opacity:1">
	<g
   id="g947"
   style="fill:#9b33f5;fill-opacity:1">
		<path
   d="M456,319.996v-40v-32c0-2.773-1.438-5.344-3.793-6.805c-2.355-1.469-5.313-1.594-7.785-0.352l-6.248,3.124l-0.932-4.35    c-2.527-11.792-10.275-21.439-20.449-26.863c2.058-5.899,2.808-12.113,1.906-18.411l-11.904-83.345    c0.768-4.75,1.205-9.813,1.205-15.303V87.48c0-24.422-9.137-46.75-25.723-62.867C365.219,8.035,341.807-0.574,316.362,0.035    C269.844,1.355,232,41.051,232,88.519v7.172c0,5.49,0.437,10.554,1.205,15.303l-11.904,83.345    c-0.901,6.297-0.152,12.512,1.906,18.411c-10.174,5.424-17.924,15.073-20.453,26.87l-0.93,4.342l-6.246-3.123    c-2.477-1.242-5.418-1.117-7.785,0.352c-2.355,1.461-3.793,4.031-3.793,6.805v32v40c-13.234,0-24,10.766-24,24v-16v-104    c0-4.422-3.582-8-8-8H32c-17.645,0-32,14.352-32,32v104c0,9.604,4.339,18.13,11.058,24C4.339,381.865,0,390.392,0,399.996    s4.339,18.13,11.058,24C4.339,429.865,0,438.392,0,447.996c0,17.648,14.355,32,32,32h120c4.418,0,8-3.578,8-8v-48v-48v-16    c0,13.234,10.766,24,24,24v56c0,3.672,2.5,6.867,6.059,7.758l128,32c0.641,0.164,1.293,0.242,1.941,0.242s1.301-0.078,1.941-0.242    l128-32c3.559-0.891,6.059-4.086,6.059-7.758v-56c13.234,0,24-10.766,24-24v-16C480,330.761,469.234,319.996,456,319.996z     M24,461.77c-4.759-2.776-8-7.88-8-13.774s3.241-10.998,8-13.774V461.77z M24,413.77c-4.759-2.776-8-7.88-8-13.774    s3.241-10.998,8-13.774V413.77z M24,365.77c-4.759-2.776-8-7.88-8-13.774s3.241-10.998,8-13.774V365.77z M144,463.996H40v-32h104    V463.996z M144,415.996H40v-32h104V415.996z M144,367.996H40v-32h104V367.996z M144,319.996H32c-5.854,0-11.274,1.695-16,4.451    v-76.451c0-8.82,7.176-16,16-16h112V319.996z M440,260.941v12.812l-51.246,12.812L440,260.941z M402.863,196.605    c0.657,4.609-0.182,8.507-1.421,11.682c-1.106-0.094-2.188-0.292-3.313-0.292h-20.961c-14.107-3.785-25.499-13.777-31.09-27    c4.578-1.875,8.863-4.203,12.809-6.961c14.174-9.923,27.02-19.899,36.033-33.046L402.863,196.605z M306.141,168.285    c-5.863-1.625-11.195-4.102-15.848-7.359c-19.432-13.604-31.796-24.926-37.847-40.186l28.714-41.025l105.476,43.431    c-6.375,14.083-18.508,24.884-36.925,37.78c-4.656,3.258-9.988,5.734-15.852,7.359c-4.18,1.164-6.672,5.445-5.621,9.648    c4.867,19.453,18.535,35.164,36.652,42.773c-6.391,5.336-22.32,11.289-44.891,11.289s-38.5-5.953-44.891-11.289    c18.117-7.609,31.785-23.32,36.652-42.773C312.813,173.73,310.32,169.449,306.141,168.285z M248,88.519    c0-38.891,30.871-71.414,68.816-72.484c0,0,0,0,0.004,0c21.059-0.633,40.379,6.516,54.305,20.047    C384.586,49.167,392,67.417,392,87.48v8.211c0,4.308-0.354,8.239-0.909,11.982L281.328,62.48    c-3.465-1.414-7.449-0.258-9.602,2.813l-23.533,33.621c-0.039-1.1-0.194-2.08-0.194-3.223V88.519z M237.137,196.605l7.944-55.617    c9.014,13.147,21.86,23.123,36.037,33.046c3.941,2.758,8.227,5.086,12.805,6.961c-5.591,13.223-16.982,23.215-31.09,27h-20.961    c-1.125,0-2.208,0.197-3.313,0.292C237.319,205.112,236.48,201.214,237.137,196.605z M200,260.941l51.246,25.623L200,273.752    V260.941z M184,367.996c-4.41,0-8-3.586-8-8v-16c0-4.414,3.59-8,8-8h16c4.41,0,8,3.586,8,8v16c0,4.414-3.59,8-8,8H184z     M312,461.746l-112-28v-49.75c13.234,0,24-10.766,24-24v-16c0-13.234-10.766-24-24-24v-29.75l112,28V461.746z M320,303.05    l-103.395-51.698l1.793-8.38c2.359-11,12.23-18.977,23.473-18.977h15.882c7.048,15.778,34.771,24,62.247,24    s55.199-8.222,62.247-24h15.882c11.242,0,21.113,7.977,23.469,18.969l1.796,8.389L320,303.05z M440,433.746l-112,28v-143.5l112-28    v29.75c-13.234,0-24,10.766-24,24v16c0,13.234,10.766,24,24,24V433.746z M464,359.996c0,4.414-3.59,8-8,8h-16c-4.41,0-8-3.586-8-8    v-16c0-4.414,3.59-8,8-8h16c4.41,0,8,3.586,8,8V359.996z"
   fill="#f56a6a"
   id="path945"
   style="fill:#9b33f5;fill-opacity:1" />
	</g>
</g>
<g
   id="g955"
   style="fill:#9b33f5;fill-opacity:1">
	<g
   id="g953"
   style="fill:#9b33f5;fill-opacity:1">
		<polygon
   points="316.359,0.035 316.362,0.035 316.363,0.035   "
   fill="#f56a6a"
   id="polygon951"
   style="fill:#9b33f5;fill-opacity:1" />
	</g>
</g>
<g
   id="g961"
   style="fill:#9b33f5;fill-opacity:1">
	<g
   id="g959"
   style="fill:#9b33f5;fill-opacity:1">
		<rect
   x="72"
   y="183.996"
   width="16"
   height="16"
   fill="#f56a6a"
   id="rect957"
   style="fill:#9b33f5;fill-opacity:1" />
	</g>
</g>
<g
   id="g967"
   style="fill:#9b33f5;fill-opacity:1">
	<g
   id="g965"
   style="fill:#9b33f5;fill-opacity:1">
		<rect
   x="72"
   y="151.996"
   width="16"
   height="16"
   fill="#f56a6a"
   id="rect963"
   style="fill:#9b33f5;fill-opacity:1" />
	</g>
</g>
<g
   id="g973"
   style="fill:#9b33f5;fill-opacity:1">
	<g
   id="g971"
   style="fill:#9b33f5;fill-opacity:1">
		<rect
   x="72"
   y="119.996"
   width="16"
   height="16"
   fill="#f56a6a"
   id="rect969"
   style="fill:#9b33f5;fill-opacity:1" />
	</g>
</g>
<g
   id="g979"
   style="fill:#9b33f5;fill-opacity:1">
	<g
   id="g977"
   style="fill:#9b33f5;fill-opacity:1">
		<rect
   x="72"
   y="87.996"
   width="16"
   height="16"
   fill="#f56a6a"
   id="rect975"
   style="fill:#9b33f5;fill-opacity:1" />
	</g>
</g>
<g
   id="g985"
   style="fill:#9b33f5;fill-opacity:1">
	<g
   id="g983"
   style="fill:#9b33f5;fill-opacity:1">
		<rect
   x="72"
   y="55.996"
   width="16"
   height="16"
   fill="#f56a6a"
   id="rect981"
   style="fill:#9b33f5;fill-opacity:1" />
	</g>
</g>
<g
   id="g991"
   style="fill:#9b33f5;fill-opacity:1">
	<g
   id="g989"
   style="fill:#9b33f5;fill-opacity:1">
		<rect
   x="104"
   y="55.996"
   width="16"
   height="16"
   fill="#f56a6a"
   id="rect987"
   style="fill:#9b33f5;fill-opacity:1" />
	</g>
</g>
<g
   id="g997"
   style="fill:#9b33f5;fill-opacity:1">
	<g
   id="g995"
   style="fill:#9b33f5;fill-opacity:1">
		<rect
   x="136"
   y="55.996"
   width="16"
   height="16"
   fill="#f56a6a"
   id="rect993"
   style="fill:#9b33f5;fill-opacity:1" />
	</g>
</g>
<g
   id="g1003"
   style="fill:#9b33f5;fill-opacity:1">
	<g
   id="g1001"
   style="fill:#9b33f5;fill-opacity:1">
		<rect
   x="168"
   y="55.996"
   width="16"
   height="16"
   fill="#f56a6a"
   id="rect999"
   style="fill:#9b33f5;fill-opacity:1" />
	</g>
</g>
<g
   id="g1009"
   style="fill:#9b33f5;fill-opacity:1">
	<g
   id="g1007"
   style="fill:#9b33f5;fill-opacity:1">
		<rect
   x="200"
   y="55.996"
   width="16"
   height="16"
   fill="#f56a6a"
   id="rect1005"
   style="fill:#9b33f5;fill-opacity:1" />
	</g>
</g>
<g
   id="g1011"
   style="fill:#9b33f5;fill-opacity:1">
</g>
<g
   id="g1013"
   style="fill:#9b33f5;fill-opacity:1">
</g>
<g
   id="g1015"
   style="fill:#9b33f5;fill-opacity:1">
</g>
<g
   id="g1017"
   style="fill:#9b33f5;fill-opacity:1">
</g>
<g
   id="g1019"
   style="fill:#9b33f5;fill-opacity:1">
</g>
<g
   id="g1021"
   style="fill:#9b33f5;fill-opacity:1">
</g>
<g
   id="g1023"
   style="fill:#9b33f5;fill-opacity:1">
</g>
<g
   id="g1025"
   style="fill:#9b33f5;fill-opacity:1">
</g>
<g
   id="g1027"
   style="fill:#9b33f5;fill-opacity:1">
</g>
<g
   id="g1029"
   style="fill:#9b33f5;fill-opacity:1">
</g>
<g
   id="g1031"
   style="fill:#9b33f5;fill-opacity:1">
</g>
<g
   id="g1033"
   style="fill:#9b33f5;fill-opacity:1">
</g>
<g
   id="g1035"
   style="fill:#9b33f5;fill-opacity:1">
</g>
<g
   id="g1037"
   style="fill:#9b33f5;fill-opacity:1">
</g>
<g
   id="g1039"
   style="fill:#9b33f5;fill-opacity:1">
</g>
</svg>
