<?xml version="1.0" encoding="UTF-8" standalone="no"?>
<!-- Generator: Adobe Illustrator 16.0.0, SVG Export Plug-In . SVG Version: 6.00 Build 0)  -->

<svg
   version="1.1"
   id="Capa_1"
   x="0px"
   y="0px"
   width="512px"
   height="512px"
   viewBox="0 0 580.125 580.125"
   style="enable-background:new 0 0 580.125 580.125;"
   xml:space="preserve"
   sodipodi:docname="three-way-intersection.svg"
   inkscape:version="1.1.2 (b8e25be8, 2022-02-05)"
   xmlns:inkscape="http://www.inkscape.org/namespaces/inkscape"
   xmlns:sodipodi="http://sodipodi.sourceforge.net/DTD/sodipodi-0.dtd"
   xmlns="http://www.w3.org/2000/svg"
   xmlns:svg="http://www.w3.org/2000/svg"><defs
   id="defs1259" /><sodipodi:namedview
   id="namedview1257"
   pagecolor="#ffffff"
   bordercolor="#666666"
   borderopacity="1.0"
   inkscape:pageshadow="2"
   inkscape:pageopacity="0.0"
   inkscape:pagecheckerboard="0"
   showgrid="false"
   inkscape:zoom="1.7050781"
   inkscape:cx="112.89805"
   inkscape:cy="263.0378"
   inkscape:window-width="1296"
   inkscape:window-height="1081"
   inkscape:window-x="0"
   inkscape:window-y="25"
   inkscape:window-maximized="0"
   inkscape:current-layer="Capa_1" />
<g
   id="g1224"
   style="fill:#9b33f5;fill-opacity:1">
	<g
   id="Layer_1_2_"
   style="fill:#9b33f5;fill-opacity:1">
		<path
   d="M573.113,298.351l-117.301-117.3c-3.824-3.825-10.199-5.1-15.299-2.55c-5.102,2.55-8.926,7.65-8.926,12.75v79.05    c-38.25,0-70.125,6.375-96.9,19.125V145.35h73.951c6.375,0,11.475-3.825,12.75-8.925c2.549-5.1,1.273-11.475-2.551-15.3    L301.537,3.825C298.988,1.275,295.162,0,291.338,0c-3.825,0-7.65,1.275-10.2,3.825l-118.575,117.3    c-3.825,3.825-5.1,10.2-2.55,15.3c2.55,5.1,7.65,8.925,12.75,8.925h75.225v142.8c-26.775-12.75-58.65-19.125-98.175-19.125v-79.05    c0-6.375-3.825-11.475-8.925-12.75c-5.1-2.55-11.475-1.275-15.3,2.55l-117.3,117.3c-2.55,2.55-3.825,6.375-3.825,10.2    s1.275,7.649,3.825,10.2l117.3,117.3c3.825,3.825,10.2,5.1,15.3,2.55c5.1-2.55,8.925-7.65,8.925-12.75v-66.3    c72.675,0,96.9,24.225,96.9,98.175v79.05c0,24.226,19.125,43.351,42.075,44.625h2.55c22.949-1.274,42.074-20.399,42.074-44.625    v-79.05c0-73.95,22.951-98.175,96.9-98.175v66.3c0,6.375,3.826,11.475,8.926,12.75c5.1,2.55,11.475,1.275,15.299-2.55    l117.301-117.3c2.551-2.551,3.824-6.375,3.824-10.2S575.662,300.9,573.113,298.351z"
   fill="#f56a6a"
   id="path1221"
   style="fill:#9b33f5;fill-opacity:1" />
	</g>
</g>
<g
   id="g1226"
   style="fill:#9b33f5;fill-opacity:1">
</g>
<g
   id="g1228"
   style="fill:#9b33f5;fill-opacity:1">
</g>
<g
   id="g1230"
   style="fill:#9b33f5;fill-opacity:1">
</g>
<g
   id="g1232"
   style="fill:#9b33f5;fill-opacity:1">
</g>
<g
   id="g1234"
   style="fill:#9b33f5;fill-opacity:1">
</g>
<g
   id="g1236"
   style="fill:#9b33f5;fill-opacity:1">
</g>
<g
   id="g1238"
   style="fill:#9b33f5;fill-opacity:1">
</g>
<g
   id="g1240"
   style="fill:#9b33f5;fill-opacity:1">
</g>
<g
   id="g1242"
   style="fill:#9b33f5;fill-opacity:1">
</g>
<g
   id="g1244"
   style="fill:#9b33f5;fill-opacity:1">
</g>
<g
   id="g1246"
   style="fill:#9b33f5;fill-opacity:1">
</g>
<g
   id="g1248"
   style="fill:#9b33f5;fill-opacity:1">
</g>
<g
   id="g1250"
   style="fill:#9b33f5;fill-opacity:1">
</g>
<g
   id="g1252"
   style="fill:#9b33f5;fill-opacity:1">
</g>
<g
   id="g1254"
   style="fill:#9b33f5;fill-opacity:1">
</g>
</svg>
