<?xml version="1.0" encoding="iso-8859-1"?>
<!-- Generator: Adobe Illustrator 19.0.0, SVG Export Plug-In . SVG Version: 6.00 Build 0)  -->
<svg xmlns="http://www.w3.org/2000/svg" xmlns:xlink="http://www.w3.org/1999/xlink" version="1.1" id="Capa_1" x="0px" y="0px" viewBox="0 0 512 512" style="enable-background:new 0 0 512 512;" xml:space="preserve" width="512px" height="512px">
<g>
	<g>
		<path d="M200.72,2.93C198.86,1.07,196.29,0,193.65,0c-2.63,0-5.21,1.07-7.07,2.93c-1.86,1.86-2.93,4.44-2.93,7.07    s1.07,5.21,2.93,7.07s4.44,2.93,7.07,2.93c2.64,0,5.21-1.07,7.07-2.93c1.87-1.86,2.93-4.44,2.93-7.07S202.59,4.79,200.72,2.93z" fill="#f56a6a"/>
	</g>
</g>
<g>
	<g>
		<path d="M470,0H236.653c-5.523,0-10,4.477-10,10s4.477,10,10,10H470c12.131,0,22,9.869,22,22v258H20V42c0-12.131,9.869-22,22-22    h112.653c5.523,0,10-4.477,10-10s-4.477-10-10-10H42C18.841,0,0,18.841,0,42v310.083c0,23.159,18.841,42,42,42h155v43.854h-42.333    c-5.523,0-10,4.478-10,10V502c0,5.522,4.477,10,10,10h202.667c5.523,0,10-4.478,10-10v-54.063c0-5.522-4.477-10-10-10H313v-43.854    h157c23.159,0,42-18.841,42-42V42C512,18.841,493.159,0,470,0z M347.334,457.937V492h-0.001H164.667v-34.063H347.334z     M217,437.938v-43.854h76v43.854H217z M492,352.083c0,12.131-9.869,22-22,22H42c-12.131,0-22-9.869-22-22V320h472V352.083z" fill="#f56a6a"/>
	</g>
</g>
<g>
	<g>
		<path d="M262.07,345.01c-1.86-1.86-4.44-2.93-7.07-2.93s-5.21,1.069-7.07,2.93c-1.86,1.86-2.93,4.44-2.93,7.07    c0,2.64,1.07,5.21,2.93,7.069c1.86,1.86,4.44,2.931,7.07,2.931s5.21-1.07,7.07-2.931c1.86-1.859,2.93-4.43,2.93-7.069    C265,349.45,263.93,346.87,262.07,345.01z" fill="#f56a6a"/>
	</g>
</g>
<g>
	<g>
		<path d="M454.596,124H335.667c-5.523,0-10,4.477-10,10s4.477,10,10,10h118.929c5.523,0,10-4.477,10-10S460.119,124,454.596,124z" fill="#f56a6a"/>
	</g>
</g>
<g>
	<g>
		<path d="M150.922,180H58.905c-5.523,0-10,4.477-10,10s4.477,10,10,10h92.018c5.522,0,9.999-4.478,9.999-10    C160.922,184.477,156.445,180,150.922,180z" fill="#f56a6a"/>
	</g>
</g>
<g>
	<g>
		<path d="M70.385,236h-11.48c-5.523,0-10,4.477-10,10s4.477,10,10,10h11.48c5.523,0,10-4.477,10-10S75.908,236,70.385,236z" fill="#f56a6a"/>
	</g>
</g>
<g>
	<g>
		<path d="M120.793,236H103.5c-5.523,0-10,4.477-10,10s4.477,10,10,10h17.293c5.523,0,10-4.477,10-10S126.316,236,120.793,236z" fill="#f56a6a"/>
	</g>
</g>
<g>
	<g>
		<path d="M384,180h-20.424c-5.523,0-10,4.477-10,10s4.477,10,10,10H384c5.523,0,10-4.477,10-10S389.523,180,384,180z" fill="#f56a6a"/>
	</g>
</g>
<g>
	<g>
		<path d="M454.5,180h-33c-5.523,0-10,4.477-10,10s4.477,10,10,10h33c5.523,0,10-4.478,10-10C464.5,184.477,460.023,180,454.5,180z" fill="#f56a6a"/>
	</g>
</g>
<g>
	<g>
		<path d="M454.595,236h-0.21c-5.523,0-10,4.477-10,10s4.477,10,10,10h0.21c5.523,0,10-4.477,10-10S460.118,236,454.595,236z" fill="#f56a6a"/>
	</g>
</g>
<g>
	<g>
		<path d="M417.5,236h-18.241c-5.523,0-10,4.477-10,10s4.477,10,10,10H417.5c5.523,0,10-4.477,10-10S423.023,236,417.5,236z" fill="#f56a6a"/>
	</g>
</g>
<g>
	<g>
		<path d="M454.5,68h-80.712c-5.523,0-10,4.477-10,10s4.477,10,10,10H454.5c5.523,0,10-4.477,10-10S460.023,68,454.5,68z" fill="#f56a6a"/>
	</g>
</g>
<g>
	<g>
		<path d="M333,68h-18c-5.523,0-10,4.477-10,10s4.477,10,10,10h18c5.523,0,10-4.477,10-10S338.523,68,333,68z" fill="#f56a6a"/>
	</g>
</g>
<g>
	<g>
		<path d="M164.721,68H59c-5.523,0-10,4.477-10,10s4.477,10,10,10h105.721c5.523,0,10-4.477,10-10S170.244,68,164.721,68z" fill="#f56a6a"/>
	</g>
</g>
<g>
	<g>
		<path d="M120,124H58.905c-5.523,0-10,4.477-10,10s4.477,10,10,10H120c5.523,0,10-4.477,10-10S125.523,124,120,124z" fill="#f56a6a"/>
	</g>
</g>
<g>
	<g>
		<path d="M175,124h-21.333c-5.523,0-10,4.477-10,10s4.477,10,10,10H175c5.523,0,10-4.477,10-10S180.523,124,175,124z" fill="#f56a6a"/>
	</g>
</g>
<g>
	<g>
		<path d="M361.651,240.873L264.66,72.879c-1.786-3.094-5.087-5-8.66-5s-6.874,1.906-8.66,5l-96.991,167.994    c-1.787,3.094-1.787,6.906,0,10c1.786,3.094,5.087,5,8.66,5h193.982c3.573,0,6.874-1.906,8.66-5    C363.438,247.779,363.438,243.967,361.651,240.873z M176.329,235.873L256,97.879l79.671,137.994H176.329z" fill="#f56a6a"/>
	</g>
</g>
<g>
	<g>
		<path d="M256,132.492c-5.523,0-10,4.477-10,10v30.91c0,5.523,4.477,10,10,10s10-4.477,10-10v-30.91    C266,136.969,261.523,132.492,256,132.492z" fill="#f56a6a"/>
	</g>
</g>
<g>
	<g>
		<path d="M263.07,200.96c-1.86-1.86-4.44-2.93-7.07-2.93s-5.21,1.07-7.07,2.93c-1.86,1.86-2.93,4.44-2.93,7.07s1.07,5.21,2.93,7.07    c1.86,1.86,4.44,2.93,7.07,2.93s5.21-1.07,7.07-2.93s2.93-4.44,2.93-7.07S264.93,202.82,263.07,200.96z" fill="#f56a6a"/>
	</g>
</g>
<g>
</g>
<g>
</g>
<g>
</g>
<g>
</g>
<g>
</g>
<g>
</g>
<g>
</g>
<g>
</g>
<g>
</g>
<g>
</g>
<g>
</g>
<g>
</g>
<g>
</g>
<g>
</g>
<g>
</g>
</svg>
