<?xml version="1.0" encoding="iso-8859-1"?>
<!-- Generator: Adobe Illustrator 19.0.0, SVG Export Plug-In . SVG Version: 6.00 Build 0)  -->
<svg xmlns="http://www.w3.org/2000/svg" xmlns:xlink="http://www.w3.org/1999/xlink" version="1.1" id="Capa_1" x="0px" y="0px" viewBox="0 0 480 480" style="enable-background:new 0 0 480 480;" xml:space="preserve" width="512px" height="512px">
<g>
	<g>
		<path d="M472,464h-24v-16c0-4.8-3.2-8-8-8s-8,3.2-8,8v16h-32v-16c0-4.8-3.2-8-8-8s-8,3.2-8,8v16h-32v-16c0-4.8-3.2-8-8-8    s-8,3.2-8,8v16h-32v-16c0-4.8-3.2-8-8-8s-8,3.2-8,8v16h-32v-16c0-4.8-3.2-8-8-8s-8,3.2-8,8v16h-32v-16c0-4.8-3.2-8-8-8s-8,3.2-8,8    v16h-32v-16c0-4.8-3.2-8-8-8s-8,3.2-8,8v16h-32v-16c0-4.8-3.2-8-8-8s-8,3.2-8,8v16H64v-16c0-4.8-3.2-8-8-8s-8,3.2-8,8v16H16V8    c0-4.8-3.2-8-8-8S0,3.2,0,8v464c0,4.8,3.2,8,8,8h464c4.8,0,8-3.2,8-8S476.8,464,472,464z" fill="#f56a6a"/>
	</g>
</g>
<g>
	<g>
		<path d="M432,248c-32,0-44,28.8-55.2,54.4C365.6,328.8,356,352,328,352c-16,0-27.2-10.4-39.2-24.8c54.4-45.6,92.8-116.8,102.4-140    c1.6-4,0-8.8-4.8-10.4c-4-1.6-8.8,0-10.4,4.8c-16.8,36.8-38.4,70.4-64.8,100.8c-10.4,12-20.8,22.4-32.8,32.8    c-0.8-1.6-1.6-2.4-3.2-4C255.2,280.8,232,248,184,248c-33.6,0.8-65.6,14.4-89.6,37.6c-17.6-23.2-33.6-47.2-47.2-73.6    c-1.6-4-6.4-5.6-10.4-3.2c-4,1.6-5.6,6.4-3.2,10.4C48,246.4,64.8,272.8,84,296.8c-21.6,24.8-39.2,53.6-50.4,84    c-2.4,4.8-0.8,9.6,4,10.4c0.8,0.8,1.6,0.8,2.4,0.8c3.2,0,6.4-2.4,7.2-5.6c11.2-28,26.4-53.6,46.4-76.8    c27.2,31.2,61.6,58.4,98.4,58.4c30.4-0.8,60-12,84.8-31.2c13.6,16.8,28.8,31.2,51.2,31.2c38.4,0,52-32,64-60    c11.2-27.2,20-44,40-44c4.8,0,8-3.2,8-8S436.8,248,432,248z M192,352c-31.2,0-62.4-24.8-87.2-53.6c20.8-21.6,49.6-33.6,79.2-34.4    c39.2,0,60,28,79.2,55.2c0.8,1.6,2.4,3.2,3.2,4.8C244.8,340.8,219.2,350.4,192,352z" fill="#f56a6a"/>
	</g>
</g>
<g>
</g>
<g>
</g>
<g>
</g>
<g>
</g>
<g>
</g>
<g>
</g>
<g>
</g>
<g>
</g>
<g>
</g>
<g>
</g>
<g>
</g>
<g>
</g>
<g>
</g>
<g>
</g>
<g>
</g>
</svg>
